<svg width="379" height="38" viewBox="0 0 379 38" fill="none" xmlns="http://www.w3.org/2000/svg">
<path d="M16.2382 22.575H5.59825L3.63825 28H0.278245L9.09825 3.745H12.7732L21.5582 28H18.1982L16.2382 22.575ZM15.3282 19.985L10.9182 7.665L6.50825 19.985H15.3282ZM26.1372 18.34C26.1372 16.38 26.5339 14.665 27.3272 13.195C28.1206 11.7017 29.2056 10.5467 30.5822 9.73C31.9822 8.91333 33.5456 8.505 35.2722 8.505C36.7656 8.505 38.1539 8.855 39.4372 9.555C40.7206 10.2317 41.7006 11.13 42.3772 12.25V2.1H45.5972V28H42.3772V24.395C41.7472 25.5383 40.8139 26.4833 39.5772 27.23C38.3406 27.9533 36.8939 28.315 35.2372 28.315C33.5339 28.315 31.9822 27.895 30.5822 27.055C29.2056 26.215 28.1206 25.0367 27.3272 23.52C26.5339 22.0033 26.1372 20.2767 26.1372 18.34ZM42.3772 18.375C42.3772 16.9283 42.0856 15.6683 41.5022 14.595C40.9189 13.5217 40.1256 12.705 39.1222 12.145C38.1422 11.5617 37.0572 11.27 35.8672 11.27C34.6772 11.27 33.5922 11.55 32.6122 12.11C31.6322 12.67 30.8506 13.4867 30.2672 14.56C29.6839 15.6333 29.3922 16.8933 29.3922 18.34C29.3922 19.81 29.6839 21.0933 30.2672 22.19C30.8506 23.2633 31.6322 24.0917 32.6122 24.675C33.5922 25.235 34.6772 25.515 35.8672 25.515C37.0572 25.515 38.1422 25.235 39.1222 24.675C40.1256 24.0917 40.9189 23.2633 41.5022 22.19C42.0856 21.0933 42.3772 19.8217 42.3772 18.375ZM51.7146 18.34C51.7146 16.38 52.1112 14.665 52.9046 13.195C53.6979 11.7017 54.7829 10.5467 56.1596 9.73C57.5596 8.91333 59.1229 8.505 60.8496 8.505C62.3429 8.505 63.7312 8.855 65.0146 9.555C66.2979 10.2317 67.2779 11.13 67.9546 12.25V2.1H71.1746V28H67.9546V24.395C67.3246 25.5383 66.3912 26.4833 65.1546 27.23C63.9179 27.9533 62.4712 28.315 60.8146 28.315C59.1112 28.315 57.5596 27.895 56.1596 27.055C54.7829 26.215 53.6979 25.0367 52.9046 23.52C52.1112 22.0033 51.7146 20.2767 51.7146 18.34ZM67.9546 18.375C67.9546 16.9283 67.6629 15.6683 67.0796 14.595C66.4962 13.5217 65.7029 12.705 64.6996 12.145C63.7196 11.5617 62.6346 11.27 61.4446 11.27C60.2546 11.27 59.1696 11.55 58.1896 12.11C57.2096 12.67 56.4279 13.4867 55.8446 14.56C55.2612 15.6333 54.9696 16.8933 54.9696 18.34C54.9696 19.81 55.2612 21.0933 55.8446 22.19C56.4279 23.2633 57.2096 24.0917 58.1896 24.675C59.1696 25.235 60.2546 25.515 61.4446 25.515C62.6346 25.515 63.7196 25.235 64.6996 24.675C65.7029 24.0917 66.4962 23.2633 67.0796 22.19C67.6629 21.0933 67.9546 19.8217 67.9546 18.375ZM80.1269 5.705C79.5203 5.705 79.0069 5.495 78.5869 5.075C78.1669 4.655 77.9569 4.14167 77.9569 3.535C77.9569 2.92833 78.1669 2.415 78.5869 1.995C79.0069 1.575 79.5203 1.365 80.1269 1.365C80.7103 1.365 81.2003 1.575 81.5969 1.995C82.0169 2.415 82.2269 2.92833 82.2269 3.535C82.2269 4.14167 82.0169 4.655 81.5969 5.075C81.2003 5.495 80.7103 5.705 80.1269 5.705ZM81.6669 8.82V28H78.4819V8.82H81.6669ZM92.9052 11.445V22.75C92.9052 23.6833 93.1035 24.3483 93.5002 24.745C93.8969 25.1183 94.5852 25.305 95.5652 25.305H97.9102V28H95.0402C93.2669 28 91.9369 27.5917 91.0502 26.775C90.1635 25.9583 89.7202 24.6167 89.7202 22.75V11.445H87.2352V8.82H89.7202V3.99H92.9052V8.82H97.9102V11.445H92.9052ZM105.339 5.705C104.733 5.705 104.219 5.495 103.799 5.075C103.379 4.655 103.169 4.14167 103.169 3.535C103.169 2.92833 103.379 2.415 103.799 1.995C104.219 1.575 104.733 1.365 105.339 1.365C105.923 1.365 106.413 1.575 106.809 1.995C107.229 2.415 107.439 2.92833 107.439 3.535C107.439 4.14167 107.229 4.655 106.809 5.075C106.413 5.495 105.923 5.705 105.339 5.705ZM106.879 8.82V28H103.694V8.82H106.879ZM122.598 28.315C120.801 28.315 119.168 27.9067 117.698 27.09C116.251 26.2733 115.108 25.1183 114.268 23.625C113.451 22.1083 113.043 20.3583 113.043 18.375C113.043 16.415 113.463 14.6883 114.303 13.195C115.166 11.6783 116.333 10.5233 117.803 9.73C119.273 8.91333 120.918 8.505 122.738 8.505C124.558 8.505 126.203 8.91333 127.673 9.73C129.143 10.5233 130.298 11.6667 131.138 13.16C132.001 14.6533 132.433 16.3917 132.433 18.375C132.433 20.3583 131.989 22.1083 131.103 23.625C130.239 25.1183 129.061 26.2733 127.568 27.09C126.074 27.9067 124.418 28.315 122.598 28.315ZM122.598 25.515C123.741 25.515 124.814 25.2467 125.818 24.71C126.821 24.1733 127.626 23.3683 128.233 22.295C128.863 21.2217 129.178 19.915 129.178 18.375C129.178 16.835 128.874 15.5283 128.268 14.455C127.661 13.3817 126.868 12.5883 125.888 12.075C124.908 11.5383 123.846 11.27 122.703 11.27C121.536 11.27 120.463 11.5383 119.483 12.075C118.526 12.5883 117.756 13.3817 117.173 14.455C116.589 15.5283 116.298 16.835 116.298 18.375C116.298 19.9383 116.578 21.2567 117.138 22.33C117.721 23.4033 118.491 24.2083 119.448 24.745C120.404 25.2583 121.454 25.515 122.598 25.515ZM147.89 8.47C150.224 8.47 152.114 9.18167 153.56 10.605C155.007 12.005 155.73 14.035 155.73 16.695V28H152.58V17.15C152.58 15.2367 152.102 13.7783 151.145 12.775C150.189 11.7483 148.882 11.235 147.225 11.235C145.545 11.235 144.204 11.76 143.2 12.81C142.22 13.86 141.73 15.3883 141.73 17.395V28H138.545V8.82H141.73V11.55C142.36 10.57 143.212 9.81167 144.285 9.275C145.382 8.73833 146.584 8.47 147.89 8.47ZM161.668 18.34C161.668 16.38 162.065 14.665 162.858 13.195C163.651 11.7017 164.736 10.5467 166.113 9.73C167.513 8.91333 169.065 8.505 170.768 8.505C172.448 8.505 173.906 8.86667 175.143 9.59C176.38 10.3133 177.301 11.2233 177.908 12.32V8.82H181.128V28H177.908V24.43C177.278 25.55 176.333 26.4833 175.073 27.23C173.836 27.9533 172.39 28.315 170.733 28.315C169.03 28.315 167.49 27.895 166.113 27.055C164.736 26.215 163.651 25.0367 162.858 23.52C162.065 22.0033 161.668 20.2767 161.668 18.34ZM177.908 18.375C177.908 16.9283 177.616 15.6683 177.033 14.595C176.45 13.5217 175.656 12.705 174.653 12.145C173.673 11.5617 172.588 11.27 171.398 11.27C170.208 11.27 169.123 11.55 168.143 12.11C167.163 12.67 166.381 13.4867 165.798 14.56C165.215 15.6333 164.923 16.8933 164.923 18.34C164.923 19.81 165.215 21.0933 165.798 22.19C166.381 23.2633 167.163 24.0917 168.143 24.675C169.123 25.235 170.208 25.515 171.398 25.515C172.588 25.515 173.673 25.235 174.653 24.675C175.656 24.0917 176.45 23.2633 177.033 22.19C177.616 21.0933 177.908 19.8217 177.908 18.375ZM191.62 2.1V28H188.435V2.1H191.62Z" fill="#14279B"/>
<path d="M213.858 11.41C214.488 10.5233 215.352 9.78833 216.448 9.205C217.568 8.59833 218.84 8.295 220.263 8.295C221.92 8.295 223.413 8.70333 224.743 9.52C226.097 10.3367 227.158 11.5033 227.928 13.02C228.722 14.5133 229.118 16.2517 229.118 18.235C229.118 20.2183 228.722 21.98 227.928 23.52C227.158 25.0367 226.097 26.215 224.743 27.055C223.413 27.895 221.92 28.315 220.263 28.315C218.84 28.315 217.58 28.0233 216.483 27.44C215.41 26.8567 214.535 26.1217 213.858 25.235V37.24H208.958V8.61H213.858V11.41ZM224.113 18.235C224.113 17.0683 223.868 16.065 223.378 15.225C222.912 14.3617 222.282 13.7083 221.488 13.265C220.718 12.8217 219.878 12.6 218.968 12.6C218.082 12.6 217.242 12.8333 216.448 13.3C215.678 13.7433 215.048 14.3967 214.558 15.26C214.092 16.1233 213.858 17.1383 213.858 18.305C213.858 19.4717 214.092 20.4867 214.558 21.35C215.048 22.2133 215.678 22.8783 216.448 23.345C217.242 23.7883 218.082 24.01 218.968 24.01C219.878 24.01 220.718 23.7767 221.488 23.31C222.282 22.8433 222.912 22.1783 223.378 21.315C223.868 20.4517 224.113 19.425 224.113 18.235ZM233.344 18.235C233.344 16.275 233.729 14.5367 234.499 13.02C235.292 11.5033 236.354 10.3367 237.684 9.52C239.037 8.70333 240.542 8.295 242.199 8.295C243.646 8.295 244.906 8.58667 245.979 9.17C247.076 9.75333 247.951 10.4883 248.604 11.375V8.61H253.539V28H248.604V25.165C247.974 26.075 247.099 26.8333 245.979 27.44C244.882 28.0233 243.611 28.315 242.164 28.315C240.531 28.315 239.037 27.895 237.684 27.055C236.354 26.215 235.292 25.0367 234.499 23.52C233.729 21.98 233.344 20.2183 233.344 18.235ZM248.604 18.305C248.604 17.115 248.371 16.1 247.904 15.26C247.437 14.3967 246.807 13.7433 246.014 13.3C245.221 12.8333 244.369 12.6 243.459 12.6C242.549 12.6 241.709 12.8217 240.939 13.265C240.169 13.7083 239.539 14.3617 239.049 15.225C238.582 16.065 238.349 17.0683 238.349 18.235C238.349 19.4017 238.582 20.4283 239.049 21.315C239.539 22.1783 240.169 22.8433 240.939 23.31C241.732 23.7767 242.572 24.01 243.459 24.01C244.369 24.01 245.221 23.7883 246.014 23.345C246.807 22.8783 247.437 22.225 247.904 21.385C248.371 20.5217 248.604 19.495 248.604 18.305ZM267.67 28.315C266.083 28.315 264.66 28.035 263.4 27.475C262.14 26.8917 261.136 26.11 260.39 25.13C259.666 24.15 259.27 23.065 259.2 21.875H264.135C264.228 22.6217 264.59 23.24 265.22 23.73C265.873 24.22 266.678 24.465 267.635 24.465C268.568 24.465 269.291 24.2783 269.805 23.905C270.341 23.5317 270.61 23.0533 270.61 22.47C270.61 21.84 270.283 21.3733 269.63 21.07C269 20.7433 267.985 20.3933 266.585 20.02C265.138 19.67 263.948 19.3083 263.015 18.935C262.105 18.5617 261.311 17.99 260.635 17.22C259.981 16.45 259.655 15.4117 259.655 14.105C259.655 13.0317 259.958 12.0517 260.565 11.165C261.195 10.2783 262.081 9.57833 263.225 9.065C264.391 8.55167 265.756 8.295 267.32 8.295C269.63 8.295 271.473 8.87833 272.85 10.045C274.226 11.1883 274.985 12.74 275.125 14.7H270.435C270.365 13.93 270.038 13.3233 269.455 12.88C268.895 12.4133 268.136 12.18 267.18 12.18C266.293 12.18 265.605 12.3433 265.115 12.67C264.648 12.9967 264.415 13.4517 264.415 14.035C264.415 14.6883 264.741 15.19 265.395 15.54C266.048 15.8667 267.063 16.205 268.44 16.555C269.84 16.905 270.995 17.2667 271.905 17.64C272.815 18.0133 273.596 18.5967 274.25 19.39C274.926 20.16 275.276 21.1867 275.3 22.47C275.3 23.59 274.985 24.5933 274.355 25.48C273.748 26.3667 272.861 27.0667 271.695 27.58C270.551 28.07 269.21 28.315 267.67 28.315ZM288.667 28.315C287.08 28.315 285.657 28.035 284.397 27.475C283.137 26.8917 282.134 26.11 281.387 25.13C280.664 24.15 280.267 23.065 280.197 21.875H285.132C285.225 22.6217 285.587 23.24 286.217 23.73C286.87 24.22 287.675 24.465 288.632 24.465C289.565 24.465 290.289 24.2783 290.802 23.905C291.339 23.5317 291.607 23.0533 291.607 22.47C291.607 21.84 291.28 21.3733 290.627 21.07C289.997 20.7433 288.982 20.3933 287.582 20.02C286.135 19.67 284.945 19.3083 284.012 18.935C283.102 18.5617 282.309 17.99 281.632 17.22C280.979 16.45 280.652 15.4117 280.652 14.105C280.652 13.0317 280.955 12.0517 281.562 11.165C282.192 10.2783 283.079 9.57833 284.222 9.065C285.389 8.55167 286.754 8.295 288.317 8.295C290.627 8.295 292.47 8.87833 293.847 10.045C295.224 11.1883 295.982 12.74 296.122 14.7H291.432C291.362 13.93 291.035 13.3233 290.452 12.88C289.892 12.4133 289.134 12.18 288.177 12.18C287.29 12.18 286.602 12.3433 286.112 12.67C285.645 12.9967 285.412 13.4517 285.412 14.035C285.412 14.6883 285.739 15.19 286.392 15.54C287.045 15.8667 288.06 16.205 289.437 16.555C290.837 16.905 291.992 17.2667 292.902 17.64C293.812 18.0133 294.594 18.5967 295.247 19.39C295.924 20.16 296.274 21.1867 296.297 22.47C296.297 23.59 295.982 24.5933 295.352 25.48C294.745 26.3667 293.859 27.0667 292.692 27.58C291.549 28.07 290.207 28.315 288.667 28.315ZM304.729 6.3C303.866 6.3 303.143 6.03167 302.559 5.495C301.999 4.935 301.719 4.24667 301.719 3.43C301.719 2.61333 301.999 1.93666 302.559 1.4C303.143 0.839999 303.866 0.559999 304.729 0.559999C305.593 0.559999 306.304 0.839999 306.864 1.4C307.448 1.93666 307.739 2.61333 307.739 3.43C307.739 4.24667 307.448 4.935 306.864 5.495C306.304 6.03167 305.593 6.3 304.729 6.3ZM307.144 8.61V28H302.244V8.61H307.144ZM322.52 28.315C320.654 28.315 318.974 27.9067 317.48 27.09C315.987 26.25 314.809 25.0717 313.945 23.555C313.105 22.0383 312.685 20.2883 312.685 18.305C312.685 16.3217 313.117 14.5717 313.98 13.055C314.867 11.5383 316.069 10.3717 317.585 9.555C319.102 8.715 320.794 8.295 322.66 8.295C324.527 8.295 326.219 8.715 327.735 9.555C329.252 10.3717 330.442 11.5383 331.305 13.055C332.192 14.5717 332.635 16.3217 332.635 18.305C332.635 20.2883 332.18 22.0383 331.27 23.555C330.384 25.0717 329.17 26.25 327.63 27.09C326.114 27.9067 324.41 28.315 322.52 28.315ZM322.52 24.045C323.407 24.045 324.235 23.835 325.005 23.415C325.799 22.9717 326.429 22.3183 326.895 21.455C327.362 20.5917 327.595 19.5417 327.595 18.305C327.595 16.4617 327.105 15.05 326.125 14.07C325.169 13.0667 323.99 12.565 322.59 12.565C321.19 12.565 320.012 13.0667 319.055 14.07C318.122 15.05 317.655 16.4617 317.655 18.305C317.655 20.1483 318.11 21.5717 319.02 22.575C319.954 23.555 321.12 24.045 322.52 24.045ZM348.9 8.33C351.21 8.33 353.077 9.065 354.5 10.535C355.923 11.9817 356.635 14.0117 356.635 16.625V28H351.735V17.29C351.735 15.75 351.35 14.5717 350.58 13.755C349.81 12.915 348.76 12.495 347.43 12.495C346.077 12.495 345.003 12.915 344.21 13.755C343.44 14.5717 343.055 15.75 343.055 17.29V28H338.155V8.61H343.055V11.025C343.708 10.185 344.537 9.53167 345.54 9.065C346.567 8.575 347.687 8.33 348.9 8.33ZM370.64 28.315C369.053 28.315 367.63 28.035 366.37 27.475C365.11 26.8917 364.106 26.11 363.36 25.13C362.636 24.15 362.24 23.065 362.17 21.875H367.105C367.198 22.6217 367.56 23.24 368.19 23.73C368.843 24.22 369.648 24.465 370.605 24.465C371.538 24.465 372.261 24.2783 372.775 23.905C373.311 23.5317 373.58 23.0533 373.58 22.47C373.58 21.84 373.253 21.3733 372.6 21.07C371.97 20.7433 370.955 20.3933 369.555 20.02C368.108 19.67 366.918 19.3083 365.985 18.935C365.075 18.5617 364.281 17.99 363.605 17.22C362.951 16.45 362.625 15.4117 362.625 14.105C362.625 13.0317 362.928 12.0517 363.535 11.165C364.165 10.2783 365.051 9.57833 366.195 9.065C367.361 8.55167 368.726 8.295 370.29 8.295C372.6 8.295 374.443 8.87833 375.82 10.045C377.196 11.1883 377.955 12.74 378.095 14.7H373.405C373.335 13.93 373.008 13.3233 372.425 12.88C371.865 12.4133 371.106 12.18 370.15 12.18C369.263 12.18 368.575 12.3433 368.085 12.67C367.618 12.9967 367.385 13.4517 367.385 14.035C367.385 14.6883 367.711 15.19 368.365 15.54C369.018 15.8667 370.033 16.205 371.41 16.555C372.81 16.905 373.965 17.2667 374.875 17.64C375.785 18.0133 376.566 18.5967 377.22 19.39C377.896 20.16 378.246 21.1867 378.27 22.47C378.27 23.59 377.955 24.5933 377.325 25.48C376.718 26.3667 375.831 27.0667 374.665 27.58C373.521 28.07 372.18 28.315 370.64 28.315Z" fill="#002265"/>
</svg>
