<svg width="219" height="26" viewBox="0 0 219 26" fill="none" xmlns="http://www.w3.org/2000/svg">
<path d="M0.0212125 12.785C0.0212125 10.405 0.557879 8.27 1.63121 6.38C2.70455 4.46667 4.16288 2.97333 6.00621 1.9C7.87288 0.826666 9.93788 0.289999 12.2012 0.289999C14.8612 0.289999 17.1829 0.931666 19.1662 2.215C21.1495 3.49833 22.5962 5.31833 23.5062 7.675H19.6912C19.0145 6.205 18.0345 5.07333 16.7512 4.28C15.4912 3.48667 13.9745 3.09 12.2012 3.09C10.4979 3.09 8.96955 3.48667 7.61621 4.28C6.26288 5.07333 5.20121 6.205 4.43121 7.675C3.66121 9.12167 3.27621 10.825 3.27621 12.785C3.27621 14.7217 3.66121 16.425 4.43121 17.895C5.20121 19.3417 6.26288 20.4617 7.61621 21.255C8.96955 22.0483 10.4979 22.445 12.2012 22.445C13.9745 22.445 15.4912 22.06 16.7512 21.29C18.0345 20.4967 19.0145 19.365 19.6912 17.895H23.5062C22.5962 20.2283 21.1495 22.0367 19.1662 23.32C17.1829 24.58 14.8612 25.21 12.2012 25.21C9.93788 25.21 7.87288 24.685 6.00621 23.635C4.16288 22.5617 2.70455 21.08 1.63121 19.19C0.557879 17.3 0.0212125 15.165 0.0212125 12.785ZM38.5373 25.315C36.7407 25.315 35.1073 24.9067 33.6373 24.09C32.1907 23.2733 31.0473 22.1183 30.2073 20.625C29.3907 19.1083 28.9823 17.3583 28.9823 15.375C28.9823 13.415 29.4023 11.6883 30.2423 10.195C31.1057 8.67833 32.2723 7.52333 33.7423 6.73C35.2123 5.91333 36.8573 5.505 38.6773 5.505C40.4973 5.505 42.1423 5.91333 43.6123 6.73C45.0823 7.52333 46.2373 8.66667 47.0773 10.16C47.9407 11.6533 48.3723 13.3917 48.3723 15.375C48.3723 17.3583 47.929 19.1083 47.0423 20.625C46.179 22.1183 45.0007 23.2733 43.5073 24.09C42.014 24.9067 40.3573 25.315 38.5373 25.315ZM38.5373 22.515C39.6807 22.515 40.754 22.2467 41.7573 21.71C42.7607 21.1733 43.5657 20.3683 44.1723 19.295C44.8023 18.2217 45.1173 16.915 45.1173 15.375C45.1173 13.835 44.814 12.5283 44.2073 11.455C43.6007 10.3817 42.8073 9.58833 41.8273 9.075C40.8473 8.53833 39.7857 8.27 38.6423 8.27C37.4757 8.27 36.4023 8.53833 35.4223 9.075C34.4657 9.58833 33.6957 10.3817 33.1123 11.455C32.529 12.5283 32.2373 13.835 32.2373 15.375C32.2373 16.9383 32.5173 18.2567 33.0773 19.33C33.6607 20.4033 34.4307 21.2083 35.3873 21.745C36.344 22.2583 37.394 22.515 38.5373 22.515ZM63.83 5.47C66.1634 5.47 68.0534 6.18167 69.5 7.605C70.9467 9.005 71.67 11.035 71.67 13.695V25H68.52V14.15C68.52 12.2367 68.0417 10.7783 67.085 9.775C66.1284 8.74833 64.8217 8.235 63.165 8.235C61.485 8.235 60.1434 8.76 59.14 9.81C58.16 10.86 57.67 12.3883 57.67 14.395V25H54.485V5.82H57.67V8.55C58.3 7.57 59.1517 6.81167 60.225 6.275C61.3217 5.73833 62.5234 5.47 63.83 5.47ZM82.6827 8.445V19.75C82.6827 20.6833 82.8811 21.3483 83.2777 21.745C83.6744 22.1183 84.3627 22.305 85.3427 22.305H87.6877V25H84.8177C83.0444 25 81.7144 24.5917 80.8277 23.775C79.9411 22.9583 79.4977 21.6167 79.4977 19.75V8.445H77.0127V5.82H79.4977V0.989998H82.6827V5.82H87.6877V8.445H82.6827ZM92.2818 15.34C92.2818 13.38 92.6784 11.665 93.4718 10.195C94.2651 8.70167 95.3501 7.54667 96.7268 6.73C98.1268 5.91333 99.6784 5.505 101.382 5.505C103.062 5.505 104.52 5.86667 105.757 6.59C106.993 7.31333 107.915 8.22333 108.522 9.32V5.82H111.742V25H108.522V21.43C107.892 22.55 106.947 23.4833 105.687 24.23C104.45 24.9533 103.003 25.315 101.347 25.315C99.6434 25.315 98.1034 24.895 96.7268 24.055C95.3501 23.215 94.2651 22.0367 93.4718 20.52C92.6784 19.0033 92.2818 17.2767 92.2818 15.34ZM108.522 15.375C108.522 13.9283 108.23 12.6683 107.647 11.595C107.063 10.5217 106.27 9.705 105.267 9.145C104.287 8.56167 103.202 8.27 102.012 8.27C100.822 8.27 99.7368 8.55 98.7568 9.11C97.7768 9.67 96.9951 10.4867 96.4118 11.56C95.8284 12.6333 95.5368 13.8933 95.5368 15.34C95.5368 16.81 95.8284 18.0933 96.4118 19.19C96.9951 20.2633 97.7768 21.0917 98.7568 21.675C99.7368 22.235 100.822 22.515 102.012 22.515C103.202 22.515 104.287 22.235 105.267 21.675C106.27 21.0917 107.063 20.2633 107.647 19.19C108.23 18.0933 108.522 16.8217 108.522 15.375ZM117.859 15.375C117.859 13.3917 118.256 11.665 119.049 10.195C119.842 8.70167 120.939 7.54667 122.339 6.73C123.762 5.91333 125.384 5.505 127.204 5.505C129.561 5.505 131.497 6.07667 133.014 7.22C134.554 8.36333 135.569 9.95 136.059 11.98H132.629C132.302 10.8133 131.661 9.89167 130.704 9.215C129.771 8.53833 128.604 8.2 127.204 8.2C125.384 8.2 123.914 8.83 122.794 10.09C121.674 11.3267 121.114 13.0883 121.114 15.375C121.114 17.685 121.674 19.47 122.794 20.73C123.914 21.99 125.384 22.62 127.204 22.62C128.604 22.62 129.771 22.2933 130.704 21.64C131.637 20.9867 132.279 20.0533 132.629 18.84H136.059C135.546 20.8 134.519 22.375 132.979 23.565C131.439 24.7317 129.514 25.315 127.204 25.315C125.384 25.315 123.762 24.9067 122.339 24.09C120.939 23.2733 119.842 22.1183 119.049 20.625C118.256 19.1317 117.859 17.3817 117.859 15.375ZM146.119 8.445V19.75C146.119 20.6833 146.317 21.3483 146.714 21.745C147.111 22.1183 147.799 22.305 148.779 22.305H151.124V25H148.254C146.481 25 145.151 24.5917 144.264 23.775C143.377 22.9583 142.934 21.6167 142.934 19.75V8.445H140.449V5.82H142.934V0.989998H146.119V5.82H151.124V8.445H146.119Z" fill="#14279B"/>
<path d="M193.528 0.57V25H188.628V9.11L182.083 25H178.373L171.793 9.11V25H166.893V0.57H172.458L180.228 18.735L187.998 0.57H193.528ZM218.322 14.885C218.322 15.585 218.276 16.215 218.182 16.775H204.007C204.124 18.175 204.614 19.2717 205.477 20.065C206.341 20.8583 207.402 21.255 208.662 21.255C210.482 21.255 211.777 20.4733 212.547 18.91H217.832C217.272 20.7767 216.199 22.3167 214.612 23.53C213.026 24.72 211.077 25.315 208.767 25.315C206.901 25.315 205.221 24.9067 203.727 24.09C202.257 23.25 201.102 22.0717 200.262 20.555C199.446 19.0383 199.037 17.2883 199.037 15.305C199.037 13.2983 199.446 11.5367 200.262 10.02C201.079 8.50333 202.222 7.33667 203.692 6.52C205.162 5.70333 206.854 5.295 208.767 5.295C210.611 5.295 212.256 5.69167 213.702 6.485C215.172 7.27833 216.304 8.41 217.097 9.88C217.914 11.3267 218.322 12.995 218.322 14.885ZM213.247 13.485C213.224 12.225 212.769 11.2217 211.882 10.475C210.996 9.705 209.911 9.32 208.627 9.32C207.414 9.32 206.387 9.69333 205.547 10.44C204.731 11.1633 204.229 12.1783 204.042 13.485H213.247Z" fill="#172774"/>
</svg>
