<svg width="1440" height="2504" viewBox="0 0 1440 2504" fill="none" xmlns="http://www.w3.org/2000/svg">
<rect width="1440" height="2504" fill="#E5E5E5"/>
<rect x="974.067" y="199" width="196" height="58" rx="10" fill="#002265"/>
<path d="M993.304 228.25C993.304 226.533 993.688 225 994.454 223.65C995.238 222.283 996.296 221.225 997.629 220.475C998.979 219.708 1000.49 219.325 1002.15 219.325C1004.1 219.325 1005.81 219.825 1007.28 220.825C1008.75 221.825 1009.77 223.208 1010.35 224.975H1006.33C1005.93 224.142 1005.36 223.517 1004.63 223.1C1003.91 222.683 1003.08 222.475 1002.13 222.475C1001.11 222.475 1000.2 222.717 999.404 223.2C998.621 223.667 998.004 224.333 997.554 225.2C997.121 226.067 996.904 227.083 996.904 228.25C996.904 229.4 997.121 230.417 997.554 231.3C998.004 232.167 998.621 232.842 999.404 233.325C1000.2 233.792 1001.11 234.025 1002.13 234.025C1003.08 234.025 1003.91 233.817 1004.63 233.4C1005.36 232.967 1005.93 232.333 1006.33 231.5H1010.35C1009.77 233.283 1008.75 234.675 1007.28 235.675C1005.83 236.658 1004.12 237.15 1002.15 237.15C1000.49 237.15 998.979 236.775 997.629 236.025C996.296 235.258 995.238 234.2 994.454 232.85C993.688 231.5 993.304 229.967 993.304 228.25ZM1020.87 237.225C1019.54 237.225 1018.34 236.933 1017.27 236.35C1016.2 235.75 1015.36 234.908 1014.74 233.825C1014.14 232.742 1013.84 231.492 1013.84 230.075C1013.84 228.658 1014.15 227.408 1014.77 226.325C1015.4 225.242 1016.26 224.408 1017.34 223.825C1018.43 223.225 1019.64 222.925 1020.97 222.925C1022.3 222.925 1023.51 223.225 1024.59 223.825C1025.68 224.408 1026.53 225.242 1027.14 226.325C1027.78 227.408 1028.09 228.658 1028.09 230.075C1028.09 231.492 1027.77 232.742 1027.12 233.825C1026.49 234.908 1025.62 235.75 1024.52 236.35C1023.44 236.933 1022.22 237.225 1020.87 237.225ZM1020.87 234.175C1021.5 234.175 1022.09 234.025 1022.64 233.725C1023.21 233.408 1023.66 232.942 1023.99 232.325C1024.33 231.708 1024.49 230.958 1024.49 230.075C1024.49 228.758 1024.14 227.75 1023.44 227.05C1022.76 226.333 1021.92 225.975 1020.92 225.975C1019.92 225.975 1019.08 226.333 1018.39 227.05C1017.73 227.75 1017.39 228.758 1017.39 230.075C1017.39 231.392 1017.72 232.408 1018.37 233.125C1019.04 233.825 1019.87 234.175 1020.87 234.175ZM1039.71 222.95C1041.36 222.95 1042.69 223.475 1043.71 224.525C1044.73 225.558 1045.24 227.008 1045.24 228.875V237H1041.74V229.35C1041.74 228.25 1041.46 227.408 1040.91 226.825C1040.36 226.225 1039.61 225.925 1038.66 225.925C1037.69 225.925 1036.93 226.225 1036.36 226.825C1035.81 227.408 1035.54 228.25 1035.54 229.35V237H1032.04V223.15H1035.54V224.875C1036 224.275 1036.59 223.808 1037.31 223.475C1038.04 223.125 1038.84 222.95 1039.71 222.95ZM1054.01 226.025V232.725C1054.01 233.192 1054.12 233.533 1054.34 233.75C1054.57 233.95 1054.96 234.05 1055.49 234.05H1057.11V237H1054.91C1051.96 237 1050.49 235.567 1050.49 232.7V226.025H1048.84V223.15H1050.49V219.725H1054.01V223.15H1057.11V226.025H1054.01ZM1060.11 230.025C1060.11 228.625 1060.38 227.383 1060.93 226.3C1061.5 225.217 1062.26 224.383 1063.21 223.8C1064.17 223.217 1065.25 222.925 1066.43 222.925C1067.47 222.925 1068.37 223.133 1069.13 223.55C1069.92 223.967 1070.54 224.492 1071.01 225.125V223.15H1074.53V237H1071.01V234.975C1070.56 235.625 1069.93 236.167 1069.13 236.6C1068.35 237.017 1067.44 237.225 1066.41 237.225C1065.24 237.225 1064.17 236.925 1063.21 236.325C1062.26 235.725 1061.5 234.883 1060.93 233.8C1060.38 232.7 1060.11 231.442 1060.11 230.025ZM1071.01 230.075C1071.01 229.225 1070.84 228.5 1070.51 227.9C1070.17 227.283 1069.72 226.817 1069.16 226.5C1068.59 226.167 1067.98 226 1067.33 226C1066.68 226 1066.08 226.158 1065.53 226.475C1064.98 226.792 1064.53 227.258 1064.18 227.875C1063.85 228.475 1063.68 229.192 1063.68 230.025C1063.68 230.858 1063.85 231.592 1064.18 232.225C1064.53 232.842 1064.98 233.317 1065.53 233.65C1066.1 233.983 1066.7 234.15 1067.33 234.15C1067.98 234.15 1068.59 233.992 1069.16 233.675C1069.72 233.342 1070.17 232.875 1070.51 232.275C1070.84 231.658 1071.01 230.925 1071.01 230.075ZM1078.43 230.075C1078.43 228.642 1078.72 227.392 1079.3 226.325C1079.88 225.242 1080.69 224.408 1081.73 223.825C1082.76 223.225 1083.94 222.925 1085.28 222.925C1086.99 222.925 1088.41 223.358 1089.53 224.225C1090.66 225.075 1091.42 226.275 1091.8 227.825H1088.03C1087.83 227.225 1087.48 226.758 1087 226.425C1086.53 226.075 1085.95 225.9 1085.25 225.9C1084.25 225.9 1083.46 226.267 1082.88 227C1082.29 227.717 1082 228.742 1082 230.075C1082 231.392 1082.29 232.417 1082.88 233.15C1083.46 233.867 1084.25 234.225 1085.25 234.225C1086.67 234.225 1087.59 233.592 1088.03 232.325H1091.8C1091.42 233.825 1090.66 235.017 1089.53 235.9C1088.39 236.783 1086.98 237.225 1085.28 237.225C1083.94 237.225 1082.76 236.933 1081.73 236.35C1080.69 235.75 1079.88 234.917 1079.3 233.85C1078.72 232.767 1078.43 231.508 1078.43 230.075ZM1099.81 226.025V232.725C1099.81 233.192 1099.92 233.533 1100.14 233.75C1100.37 233.95 1100.76 234.05 1101.29 234.05H1102.91V237H1100.71C1097.76 237 1096.29 235.567 1096.29 232.7V226.025H1094.64V223.15H1096.29V219.725H1099.81V223.15H1102.91V226.025H1099.81ZM1133.16 219.55V237H1129.66V225.65L1124.99 237H1122.34L1117.64 225.65V237H1114.14V219.55H1118.11L1123.66 232.525L1129.21 219.55H1133.16ZM1150.87 229.775C1150.87 230.275 1150.84 230.725 1150.77 231.125H1140.65C1140.73 232.125 1141.08 232.908 1141.7 233.475C1142.32 234.042 1143.07 234.325 1143.97 234.325C1145.27 234.325 1146.2 233.767 1146.75 232.65H1150.52C1150.12 233.983 1149.36 235.083 1148.22 235.95C1147.09 236.8 1145.7 237.225 1144.05 237.225C1142.72 237.225 1141.52 236.933 1140.45 236.35C1139.4 235.75 1138.57 234.908 1137.97 233.825C1137.39 232.742 1137.1 231.492 1137.1 230.075C1137.1 228.642 1137.39 227.383 1137.97 226.3C1138.56 225.217 1139.37 224.383 1140.42 223.8C1141.47 223.217 1142.68 222.925 1144.05 222.925C1145.37 222.925 1146.54 223.208 1147.57 223.775C1148.62 224.342 1149.43 225.15 1150 226.2C1150.58 227.233 1150.87 228.425 1150.87 229.775ZM1147.25 228.775C1147.23 227.875 1146.91 227.158 1146.27 226.625C1145.64 226.075 1144.87 225.8 1143.95 225.8C1143.08 225.8 1142.35 226.067 1141.75 226.6C1141.17 227.117 1140.81 227.842 1140.67 228.775H1147.25Z" fill="white"/>
<path d="M511.565 242.9H505.015L503.965 246H499.49L505.84 228.45H510.79L517.14 246H512.615L511.565 242.9ZM510.465 239.6L508.29 233.175L506.14 239.6H510.465ZM524.722 234.025C525.122 233.375 525.697 232.85 526.447 232.45C527.197 232.05 528.056 231.85 529.022 231.85C530.172 231.85 531.214 232.142 532.147 232.725C533.081 233.308 533.814 234.142 534.347 235.225C534.897 236.308 535.172 237.567 535.172 239C535.172 240.433 534.897 241.7 534.347 242.8C533.814 243.883 533.081 244.725 532.147 245.325C531.214 245.908 530.172 246.2 529.022 246.2C528.039 246.2 527.181 246.008 526.447 245.625C525.714 245.225 525.139 244.7 524.722 244.05V246H520.447V227.5H524.722V234.025ZM530.822 239C530.822 237.933 530.522 237.1 529.922 236.5C529.339 235.883 528.614 235.575 527.747 235.575C526.897 235.575 526.172 235.883 525.572 236.5C524.989 237.117 524.697 237.958 524.697 239.025C524.697 240.092 524.989 240.933 525.572 241.55C526.172 242.167 526.897 242.475 527.747 242.475C528.597 242.475 529.322 242.167 529.922 241.55C530.522 240.917 530.822 240.067 530.822 239ZM545.14 246.2C543.774 246.2 542.54 245.908 541.44 245.325C540.357 244.742 539.499 243.908 538.865 242.825C538.249 241.742 537.94 240.475 537.94 239.025C537.94 237.592 538.257 236.333 538.89 235.25C539.524 234.15 540.39 233.308 541.49 232.725C542.59 232.142 543.824 231.85 545.19 231.85C546.557 231.85 547.79 232.142 548.89 232.725C549.99 233.308 550.857 234.15 551.49 235.25C552.124 236.333 552.44 237.592 552.44 239.025C552.44 240.458 552.115 241.725 551.465 242.825C550.832 243.908 549.957 244.742 548.84 245.325C547.74 245.908 546.507 246.2 545.14 246.2ZM545.14 242.5C545.957 242.5 546.649 242.2 547.215 241.6C547.799 241 548.09 240.142 548.09 239.025C548.09 237.908 547.807 237.05 547.24 236.45C546.69 235.85 546.007 235.55 545.19 235.55C544.357 235.55 543.665 235.85 543.115 236.45C542.565 237.033 542.29 237.892 542.29 239.025C542.29 240.142 542.557 241 543.09 241.6C543.64 242.2 544.324 242.5 545.14 242.5ZM569.858 232.05V246H565.583V244.1C565.15 244.717 564.558 245.217 563.808 245.6C563.075 245.967 562.258 246.15 561.358 246.15C560.292 246.15 559.35 245.917 558.533 245.45C557.717 244.967 557.083 244.275 556.633 243.375C556.183 242.475 555.958 241.417 555.958 240.2V232.05H560.208V239.625C560.208 240.558 560.45 241.283 560.933 241.8C561.417 242.317 562.067 242.575 562.883 242.575C563.717 242.575 564.375 242.317 564.858 241.8C565.342 241.283 565.583 240.558 565.583 239.625V232.05H569.858ZM582.079 242.375V246H579.904C578.354 246 577.146 245.625 576.279 244.875C575.412 244.108 574.979 242.867 574.979 241.15V235.6H573.279V232.05H574.979V228.65H579.254V232.05H582.054V235.6H579.254V241.2C579.254 241.617 579.354 241.917 579.554 242.1C579.754 242.283 580.087 242.375 580.554 242.375H582.079Z" fill="#608AF5"/>
<rect x="501" y="256" width="81" height="4" rx="2" fill="#608AF5"/>
<path d="M646.849 234.1C646.849 235.117 646.616 236.05 646.149 236.9C645.683 237.733 644.966 238.408 643.999 238.925C643.033 239.442 641.833 239.7 640.399 239.7H637.749V246H633.474V228.45H640.399C641.799 228.45 642.983 228.692 643.949 229.175C644.916 229.658 645.641 230.325 646.124 231.175C646.608 232.025 646.849 233 646.849 234.1ZM640.074 236.3C640.891 236.3 641.499 236.108 641.899 235.725C642.299 235.342 642.499 234.8 642.499 234.1C642.499 233.4 642.299 232.858 641.899 232.475C641.499 232.092 640.891 231.9 640.074 231.9H637.749V236.3H640.074ZM649.6 239C649.6 237.567 649.867 236.308 650.4 235.225C650.95 234.142 651.692 233.308 652.625 232.725C653.558 232.142 654.6 231.85 655.75 231.85C656.733 231.85 657.592 232.05 658.325 232.45C659.075 232.85 659.65 233.375 660.05 234.025V232.05H664.325V246H660.05V244.025C659.633 244.675 659.05 245.2 658.3 245.6C657.567 246 656.708 246.2 655.725 246.2C654.592 246.2 653.558 245.908 652.625 245.325C651.692 244.725 650.95 243.883 650.4 242.8C649.867 241.7 649.6 240.433 649.6 239ZM660.05 239.025C660.05 237.958 659.75 237.117 659.15 236.5C658.567 235.883 657.85 235.575 657 235.575C656.15 235.575 655.425 235.883 654.825 236.5C654.242 237.1 653.95 237.933 653.95 239C653.95 240.067 654.242 240.917 654.825 241.55C655.425 242.167 656.15 242.475 657 242.475C657.85 242.475 658.567 242.167 659.15 241.55C659.75 240.933 660.05 240.092 660.05 239.025ZM674.468 246.2C673.251 246.2 672.168 245.992 671.218 245.575C670.268 245.158 669.518 244.592 668.968 243.875C668.418 243.142 668.109 242.325 668.043 241.425H672.268C672.318 241.908 672.543 242.3 672.943 242.6C673.343 242.9 673.834 243.05 674.418 243.05C674.951 243.05 675.359 242.95 675.643 242.75C675.943 242.533 676.093 242.258 676.093 241.925C676.093 241.525 675.884 241.233 675.468 241.05C675.051 240.85 674.376 240.633 673.443 240.4C672.443 240.167 671.609 239.925 670.943 239.675C670.276 239.408 669.701 239 669.218 238.45C668.734 237.883 668.493 237.125 668.493 236.175C668.493 235.375 668.709 234.65 669.143 234C669.593 233.333 670.243 232.808 671.093 232.425C671.959 232.042 672.984 231.85 674.168 231.85C675.918 231.85 677.293 232.283 678.293 233.15C679.309 234.017 679.893 235.167 680.043 236.6H676.093C676.026 236.117 675.809 235.733 675.443 235.45C675.093 235.167 674.626 235.025 674.043 235.025C673.543 235.025 673.159 235.125 672.893 235.325C672.626 235.508 672.493 235.767 672.493 236.1C672.493 236.5 672.701 236.8 673.118 237C673.551 237.2 674.218 237.4 675.118 237.6C676.151 237.867 676.993 238.133 677.643 238.4C678.293 238.65 678.859 239.067 679.343 239.65C679.843 240.217 680.101 240.983 680.118 241.95C680.118 242.767 679.884 243.5 679.418 244.15C678.968 244.783 678.309 245.283 677.443 245.65C676.593 246.017 675.601 246.2 674.468 246.2ZM689.783 246.2C688.566 246.2 687.483 245.992 686.533 245.575C685.583 245.158 684.833 244.592 684.283 243.875C683.733 243.142 683.425 242.325 683.358 241.425H687.583C687.633 241.908 687.858 242.3 688.258 242.6C688.658 242.9 689.15 243.05 689.733 243.05C690.266 243.05 690.675 242.95 690.958 242.75C691.258 242.533 691.408 242.258 691.408 241.925C691.408 241.525 691.2 241.233 690.783 241.05C690.366 240.85 689.691 240.633 688.758 240.4C687.758 240.167 686.925 239.925 686.258 239.675C685.591 239.408 685.016 239 684.533 238.45C684.05 237.883 683.808 237.125 683.808 236.175C683.808 235.375 684.025 234.65 684.458 234C684.908 233.333 685.558 232.808 686.408 232.425C687.275 232.042 688.3 231.85 689.483 231.85C691.233 231.85 692.608 232.283 693.608 233.15C694.625 234.017 695.208 235.167 695.358 236.6H691.408C691.341 236.117 691.125 235.733 690.758 235.45C690.408 235.167 689.941 235.025 689.358 235.025C688.858 235.025 688.475 235.125 688.208 235.325C687.941 235.508 687.808 235.767 687.808 236.1C687.808 236.5 688.016 236.8 688.433 237C688.866 237.2 689.533 237.4 690.433 237.6C691.466 237.867 692.308 238.133 692.958 238.4C693.608 238.65 694.175 239.067 694.658 239.65C695.158 240.217 695.416 240.983 695.433 241.95C695.433 242.767 695.2 243.5 694.733 244.15C694.283 244.783 693.625 245.283 692.758 245.65C691.908 246.017 690.916 246.2 689.783 246.2ZM701.574 230.6C700.824 230.6 700.207 230.383 699.724 229.95C699.257 229.5 699.024 228.95 699.024 228.3C699.024 227.633 699.257 227.083 699.724 226.65C700.207 226.2 700.824 225.975 701.574 225.975C702.307 225.975 702.907 226.2 703.374 226.65C703.857 227.083 704.099 227.633 704.099 228.3C704.099 228.95 703.857 229.5 703.374 229.95C702.907 230.383 702.307 230.6 701.574 230.6ZM703.699 232.05V246H699.424V232.05H703.699ZM714.522 246.2C713.155 246.2 711.922 245.908 710.822 245.325C709.738 244.742 708.88 243.908 708.247 242.825C707.63 241.742 707.322 240.475 707.322 239.025C707.322 237.592 707.638 236.333 708.272 235.25C708.905 234.15 709.772 233.308 710.872 232.725C711.972 232.142 713.205 231.85 714.572 231.85C715.938 231.85 717.172 232.142 718.272 232.725C719.372 233.308 720.238 234.15 720.872 235.25C721.505 236.333 721.822 237.592 721.822 239.025C721.822 240.458 721.497 241.725 720.847 242.825C720.213 243.908 719.338 244.742 718.222 245.325C717.122 245.908 715.888 246.2 714.522 246.2ZM714.522 242.5C715.338 242.5 716.03 242.2 716.597 241.6C717.18 241 717.472 240.142 717.472 239.025C717.472 237.908 717.188 237.05 716.622 236.45C716.072 235.85 715.388 235.55 714.572 235.55C713.738 235.55 713.047 235.85 712.497 236.45C711.947 237.033 711.672 237.892 711.672 239.025C711.672 240.142 711.938 241 712.472 241.6C713.022 242.2 713.705 242.5 714.522 242.5ZM733.965 231.9C735.598 231.9 736.898 232.433 737.865 233.5C738.848 234.55 739.34 236 739.34 237.85V246H735.09V238.425C735.09 237.492 734.848 236.767 734.365 236.25C733.881 235.733 733.231 235.475 732.415 235.475C731.598 235.475 730.948 235.733 730.465 236.25C729.981 236.767 729.74 237.492 729.74 238.425V246H725.465V232.05H729.74V233.9C730.173 233.283 730.756 232.8 731.49 232.45C732.223 232.083 733.048 231.9 733.965 231.9ZM749.36 246.2C748.144 246.2 747.06 245.992 746.11 245.575C745.16 245.158 744.41 244.592 743.86 243.875C743.31 243.142 743.002 242.325 742.935 241.425H747.16C747.21 241.908 747.435 242.3 747.835 242.6C748.235 242.9 748.727 243.05 749.31 243.05C749.844 243.05 750.252 242.95 750.535 242.75C750.835 242.533 750.985 242.258 750.985 241.925C750.985 241.525 750.777 241.233 750.36 241.05C749.944 240.85 749.269 240.633 748.335 240.4C747.335 240.167 746.502 239.925 745.835 239.675C745.169 239.408 744.594 239 744.11 238.45C743.627 237.883 743.385 237.125 743.385 236.175C743.385 235.375 743.602 234.65 744.035 234C744.485 233.333 745.135 232.808 745.985 232.425C746.852 232.042 747.877 231.85 749.06 231.85C750.81 231.85 752.185 232.283 753.185 233.15C754.202 234.017 754.785 235.167 754.935 236.6H750.985C750.919 236.117 750.702 235.733 750.335 235.45C749.985 235.167 749.519 235.025 748.935 235.025C748.435 235.025 748.052 235.125 747.785 235.325C747.519 235.508 747.385 235.767 747.385 236.1C747.385 236.5 747.594 236.8 748.01 237C748.444 237.2 749.11 237.4 750.01 237.6C751.044 237.867 751.885 238.133 752.535 238.4C753.185 238.65 753.752 239.067 754.235 239.65C754.735 240.217 754.994 240.983 755.01 241.95C755.01 242.767 754.777 243.5 754.31 244.15C753.86 244.783 753.202 245.283 752.335 245.65C751.485 246.017 750.494 246.2 749.36 246.2Z" fill="#608AF5"/>
<rect x="653" y="256" width="81" height="4" rx="2" fill="#608AF5"/>
<path d="M827.446 234.1C827.446 235.117 827.212 236.05 826.746 236.9C826.279 237.733 825.562 238.408 824.596 238.925C823.629 239.442 822.429 239.7 820.996 239.7H818.346V246H814.071V228.45H820.996C822.396 228.45 823.579 228.692 824.546 229.175C825.512 229.658 826.237 230.325 826.721 231.175C827.204 232.025 827.446 233 827.446 234.1ZM820.671 236.3C821.487 236.3 822.096 236.108 822.496 235.725C822.896 235.342 823.096 234.8 823.096 234.1C823.096 233.4 822.896 232.858 822.496 232.475C822.096 232.092 821.487 231.9 820.671 231.9H818.346V236.3H820.671ZM837.396 246.2C836.029 246.2 834.796 245.908 833.696 245.325C832.613 244.742 831.754 243.908 831.121 242.825C830.504 241.742 830.196 240.475 830.196 239.025C830.196 237.592 830.513 236.333 831.146 235.25C831.779 234.15 832.646 233.308 833.746 232.725C834.846 232.142 836.079 231.85 837.446 231.85C838.813 231.85 840.046 232.142 841.146 232.725C842.246 233.308 843.113 234.15 843.746 235.25C844.379 236.333 844.696 237.592 844.696 239.025C844.696 240.458 844.371 241.725 843.721 242.825C843.088 243.908 842.213 244.742 841.096 245.325C839.996 245.908 838.763 246.2 837.396 246.2ZM837.396 242.5C838.213 242.5 838.904 242.2 839.471 241.6C840.054 241 840.346 240.142 840.346 239.025C840.346 237.908 840.063 237.05 839.496 236.45C838.946 235.85 838.263 235.55 837.446 235.55C836.613 235.55 835.921 235.85 835.371 236.45C834.821 237.033 834.546 237.892 834.546 239.025C834.546 240.142 834.813 241 835.346 241.6C835.896 242.2 836.579 242.5 837.396 242.5ZM852.614 234.375C853.114 233.608 853.739 233.008 854.489 232.575C855.239 232.125 856.072 231.9 856.989 231.9V236.425H855.814C854.747 236.425 853.947 236.658 853.414 237.125C852.881 237.575 852.614 238.375 852.614 239.525V246H848.339V232.05H852.614V234.375ZM868.182 242.375V246H866.007C864.457 246 863.249 245.625 862.382 244.875C861.516 244.108 861.082 242.867 861.082 241.15V235.6H859.382V232.05H861.082V228.65H865.357V232.05H868.157V235.6H865.357V241.2C865.357 241.617 865.457 241.917 865.657 242.1C865.857 242.283 866.191 242.375 866.657 242.375H868.182ZM878.939 235.6H876.639V246H872.364V235.6H870.814V232.05H872.364V231.65C872.364 229.933 872.855 228.633 873.839 227.75C874.822 226.85 876.264 226.4 878.164 226.4C878.48 226.4 878.714 226.408 878.864 226.425V230.05C878.047 230 877.472 230.117 877.139 230.4C876.805 230.683 876.639 231.192 876.639 231.925V232.05H878.939V235.6ZM888.672 246.2C887.306 246.2 886.072 245.908 884.972 245.325C883.889 244.742 883.031 243.908 882.397 242.825C881.781 241.742 881.472 240.475 881.472 239.025C881.472 237.592 881.789 236.333 882.422 235.25C883.056 234.15 883.922 233.308 885.022 232.725C886.122 232.142 887.356 231.85 888.722 231.85C890.089 231.85 891.322 232.142 892.422 232.725C893.522 233.308 894.389 234.15 895.022 235.25C895.656 236.333 895.972 237.592 895.972 239.025C895.972 240.458 895.647 241.725 894.997 242.825C894.364 243.908 893.489 244.742 892.372 245.325C891.272 245.908 890.039 246.2 888.672 246.2ZM888.672 242.5C889.489 242.5 890.181 242.2 890.747 241.6C891.331 241 891.622 240.142 891.622 239.025C891.622 237.908 891.339 237.05 890.772 236.45C890.222 235.85 889.539 235.55 888.722 235.55C887.889 235.55 887.197 235.85 886.647 236.45C886.097 237.033 885.822 237.892 885.822 239.025C885.822 240.142 886.089 241 886.622 241.6C887.172 242.2 887.856 242.5 888.672 242.5ZM903.89 227.5V246H899.615V227.5H903.89ZM910.513 230.6C909.763 230.6 909.147 230.383 908.663 229.95C908.197 229.5 907.963 228.95 907.963 228.3C907.963 227.633 908.197 227.083 908.663 226.65C909.147 226.2 909.763 225.975 910.513 225.975C911.247 225.975 911.847 226.2 912.313 226.65C912.797 227.083 913.038 227.633 913.038 228.3C913.038 228.95 912.797 229.5 912.313 229.95C911.847 230.383 911.247 230.6 910.513 230.6ZM912.638 232.05V246H908.363V232.05H912.638ZM923.462 246.2C922.095 246.2 920.862 245.908 919.762 245.325C918.678 244.742 917.82 243.908 917.187 242.825C916.57 241.742 916.262 240.475 916.262 239.025C916.262 237.592 916.578 236.333 917.212 235.25C917.845 234.15 918.712 233.308 919.812 232.725C920.912 232.142 922.145 231.85 923.512 231.85C924.878 231.85 926.112 232.142 927.212 232.725C928.312 233.308 929.178 234.15 929.812 235.25C930.445 236.333 930.762 237.592 930.762 239.025C930.762 240.458 930.437 241.725 929.787 242.825C929.153 243.908 928.278 244.742 927.162 245.325C926.062 245.908 924.828 246.2 923.462 246.2ZM923.462 242.5C924.278 242.5 924.97 242.2 925.537 241.6C926.12 241 926.412 240.142 926.412 239.025C926.412 237.908 926.128 237.05 925.562 236.45C925.012 235.85 924.328 235.55 923.512 235.55C922.678 235.55 921.987 235.85 921.437 236.45C920.887 237.033 920.612 237.892 920.612 239.025C920.612 240.142 920.878 241 921.412 241.6C921.962 242.2 922.645 242.5 923.462 242.5Z" fill="#608AF5"/>
<rect x="831" y="256" width="81" height="4" rx="2" fill="#608AF5"/>
<g clip-path="url(#clip0_0_1)">
<rect width="1440" height="2504" fill="white"/>
<path d="M575.28 2444.6C577.94 2444.6 580.239 2445.11 582.175 2446.11C584.135 2447.09 585.629 2448.5 586.655 2450.34C587.705 2452.19 588.23 2454.36 588.23 2456.85C588.23 2459.35 587.705 2461.52 586.655 2463.36C585.629 2465.18 584.135 2466.58 582.175 2467.56C580.239 2468.52 577.94 2469 575.28 2469H567.685V2444.6H575.28ZM575.28 2466.37C578.43 2466.37 580.834 2465.55 582.49 2463.89C584.147 2462.21 584.975 2459.86 584.975 2456.85C584.975 2453.82 584.135 2451.45 582.455 2449.75C580.799 2448.05 578.407 2447.19 575.28 2447.19H570.87V2466.37H575.28ZM611.857 2458.67C611.857 2459.28 611.822 2459.92 611.752 2460.6H596.422C596.538 2462.49 597.18 2463.97 598.347 2465.04C599.537 2466.09 600.972 2466.62 602.652 2466.62C604.028 2466.62 605.172 2466.3 606.082 2465.67C607.015 2465.02 607.668 2464.16 608.042 2463.08H611.472C610.958 2464.93 609.932 2466.43 608.392 2467.6C606.852 2468.74 604.938 2469.32 602.652 2469.32C600.832 2469.32 599.198 2468.91 597.752 2468.09C596.328 2467.27 595.208 2466.12 594.392 2464.62C593.575 2463.11 593.167 2461.36 593.167 2459.37C593.167 2457.39 593.563 2455.65 594.357 2454.16C595.15 2452.67 596.258 2451.52 597.682 2450.73C599.128 2449.91 600.785 2449.5 602.652 2449.5C604.472 2449.5 606.082 2449.9 607.482 2450.69C608.882 2451.49 609.955 2452.58 610.702 2453.98C611.472 2455.36 611.857 2456.92 611.857 2458.67ZM608.567 2458.01C608.567 2456.8 608.298 2455.76 607.762 2454.89C607.225 2454.01 606.49 2453.34 605.557 2452.9C604.647 2452.43 603.632 2452.2 602.512 2452.2C600.902 2452.2 599.525 2452.71 598.382 2453.74C597.262 2454.77 596.62 2456.19 596.457 2458.01H608.567ZM624.776 2469.32C623.306 2469.32 621.987 2469.07 620.821 2468.58C619.654 2468.07 618.732 2467.37 618.056 2466.48C617.379 2465.57 617.006 2464.53 616.936 2463.36H620.226C620.319 2464.32 620.762 2465.1 621.556 2465.71C622.372 2466.32 623.434 2466.62 624.741 2466.62C625.954 2466.62 626.911 2466.35 627.611 2465.81C628.311 2465.28 628.661 2464.6 628.661 2463.78C628.661 2462.94 628.287 2462.33 627.541 2461.93C626.794 2461.51 625.639 2461.1 624.076 2460.7C622.652 2460.33 621.486 2459.96 620.576 2459.58C619.689 2459.19 618.919 2458.62 618.266 2457.87C617.636 2457.1 617.321 2456.1 617.321 2454.86C617.321 2453.88 617.612 2452.98 618.196 2452.16C618.779 2451.35 619.607 2450.71 620.681 2450.24C621.754 2449.75 622.979 2449.5 624.356 2449.5C626.479 2449.5 628.194 2450.04 629.501 2451.11C630.807 2452.19 631.507 2453.66 631.601 2455.52H628.416C628.346 2454.52 627.937 2453.72 627.191 2453.11C626.467 2452.5 625.487 2452.2 624.251 2452.2C623.107 2452.2 622.197 2452.44 621.521 2452.93C620.844 2453.42 620.506 2454.07 620.506 2454.86C620.506 2455.49 620.704 2456.01 621.101 2456.43C621.521 2456.83 622.034 2457.16 622.641 2457.41C623.271 2457.65 624.134 2457.92 625.231 2458.22C626.607 2458.59 627.727 2458.97 628.591 2459.34C629.454 2459.69 630.189 2460.23 630.796 2460.95C631.426 2461.67 631.752 2462.62 631.776 2463.78C631.776 2464.83 631.484 2465.78 630.901 2466.62C630.317 2467.46 629.489 2468.12 628.416 2468.61C627.366 2469.08 626.152 2469.32 624.776 2469.32ZM639.842 2446.7C639.235 2446.7 638.722 2446.49 638.302 2446.07C637.882 2445.65 637.672 2445.14 637.672 2444.53C637.672 2443.93 637.882 2443.41 638.302 2442.99C638.722 2442.57 639.235 2442.36 639.842 2442.36C640.425 2442.36 640.915 2442.57 641.312 2442.99C641.732 2443.41 641.942 2443.93 641.942 2444.53C641.942 2445.14 641.732 2445.65 641.312 2446.07C640.915 2446.49 640.425 2446.7 639.842 2446.7ZM641.382 2449.82V2469H638.197V2449.82H641.382ZM656.645 2449.5C658.302 2449.5 659.748 2449.87 660.985 2450.59C662.245 2451.31 663.178 2452.22 663.785 2453.32V2449.82H667.005V2469.42C667.005 2471.17 666.632 2472.72 665.885 2474.08C665.138 2475.45 664.065 2476.53 662.665 2477.3C661.288 2478.07 659.678 2478.45 657.835 2478.45C655.315 2478.45 653.215 2477.86 651.535 2476.67C649.855 2475.48 648.863 2473.85 648.56 2471.8H651.71C652.06 2472.97 652.783 2473.9 653.88 2474.6C654.977 2475.32 656.295 2475.69 657.835 2475.69C659.585 2475.69 661.008 2475.14 662.105 2474.04C663.225 2472.94 663.785 2471.4 663.785 2469.42V2465.39C663.155 2466.51 662.222 2467.45 660.985 2468.19C659.748 2468.94 658.302 2469.32 656.645 2469.32C654.942 2469.32 653.39 2468.9 651.99 2468.05C650.613 2467.21 649.528 2466.04 648.735 2464.52C647.942 2463 647.545 2461.28 647.545 2459.34C647.545 2457.38 647.942 2455.66 648.735 2454.19C649.528 2452.7 650.613 2451.55 651.99 2450.73C653.39 2449.91 654.942 2449.5 656.645 2449.5ZM663.785 2459.37C663.785 2457.93 663.493 2456.67 662.91 2455.59C662.327 2454.52 661.533 2453.7 660.53 2453.14C659.55 2452.56 658.465 2452.27 657.275 2452.27C656.085 2452.27 655 2452.55 654.02 2453.11C653.04 2453.67 652.258 2454.49 651.675 2455.56C651.092 2456.63 650.8 2457.89 650.8 2459.34C650.8 2460.81 651.092 2462.09 651.675 2463.19C652.258 2464.26 653.04 2465.09 654.02 2465.67C655 2466.23 656.085 2466.51 657.275 2466.51C658.465 2466.51 659.55 2466.23 660.53 2465.67C661.533 2465.09 662.327 2464.26 662.91 2463.19C663.493 2462.09 663.785 2460.82 663.785 2459.37ZM683.657 2449.47C685.991 2449.47 687.881 2450.18 689.327 2451.6C690.774 2453 691.497 2455.03 691.497 2457.69V2469H688.347V2458.15C688.347 2456.24 687.869 2454.78 686.912 2453.77C685.956 2452.75 684.649 2452.23 682.992 2452.23C681.312 2452.23 679.971 2452.76 678.967 2453.81C677.987 2454.86 677.497 2456.39 677.497 2458.39V2469H674.312V2449.82H677.497V2452.55C678.127 2451.57 678.979 2450.81 680.052 2450.27C681.149 2449.74 682.351 2449.47 683.657 2449.47ZM722.096 2456.43C722.983 2456.57 723.788 2456.94 724.511 2457.52C725.258 2458.1 725.841 2458.83 726.261 2459.69C726.704 2460.55 726.926 2461.47 726.926 2462.45C726.926 2463.69 726.611 2464.81 725.981 2465.81C725.351 2466.79 724.429 2467.58 723.216 2468.16C722.026 2468.72 720.614 2469 718.981 2469H709.881V2444.6H718.631C720.288 2444.6 721.699 2444.88 722.866 2445.44C724.033 2445.98 724.908 2446.72 725.491 2447.65C726.074 2448.58 726.366 2449.63 726.366 2450.8C726.366 2452.25 725.969 2453.45 725.176 2454.4C724.406 2455.34 723.379 2456.01 722.096 2456.43ZM713.066 2455.14H718.421C719.914 2455.14 721.069 2454.79 721.886 2454.09C722.703 2453.39 723.111 2452.42 723.111 2451.18C723.111 2449.95 722.703 2448.98 721.886 2448.28C721.069 2447.58 719.891 2447.23 718.351 2447.23H713.066V2455.14ZM718.701 2466.37C720.288 2466.37 721.524 2466 722.411 2465.25C723.298 2464.51 723.741 2463.47 723.741 2462.14C723.741 2460.79 723.274 2459.72 722.341 2458.95C721.408 2458.16 720.159 2457.76 718.596 2457.76H713.066V2466.37H718.701ZM749.791 2449.82L738.241 2478.03H734.951L738.731 2468.79L730.996 2449.82H734.531L740.551 2465.36L746.501 2449.82H749.791ZM779.019 2469L773.209 2459.02H769.359V2469H766.174V2444.6H774.049C775.892 2444.6 777.444 2444.92 778.704 2445.55C779.987 2446.18 780.944 2447.03 781.574 2448.1C782.204 2449.18 782.519 2450.4 782.519 2451.78C782.519 2453.46 782.029 2454.94 781.049 2456.22C780.092 2457.51 778.645 2458.36 776.709 2458.78L782.834 2469H779.019ZM769.359 2456.47H774.049C775.775 2456.47 777.07 2456.05 777.934 2455.21C778.797 2454.35 779.229 2453.2 779.229 2451.78C779.229 2450.33 778.797 2449.21 777.934 2448.42C777.094 2447.63 775.799 2447.23 774.049 2447.23H769.359V2456.47ZM788.203 2459.34C788.203 2457.38 788.599 2455.66 789.393 2454.19C790.186 2452.7 791.271 2451.55 792.648 2450.73C794.048 2449.91 795.599 2449.5 797.303 2449.5C798.983 2449.5 800.441 2449.87 801.678 2450.59C802.914 2451.31 803.836 2452.22 804.443 2453.32V2449.82H807.663V2469H804.443V2465.43C803.813 2466.55 802.868 2467.48 801.608 2468.23C800.371 2468.95 798.924 2469.32 797.268 2469.32C795.564 2469.32 794.024 2468.9 792.648 2468.05C791.271 2467.21 790.186 2466.04 789.393 2464.52C788.599 2463 788.203 2461.28 788.203 2459.34ZM804.443 2459.37C804.443 2457.93 804.151 2456.67 803.568 2455.59C802.984 2454.52 802.191 2453.7 801.188 2453.14C800.208 2452.56 799.123 2452.27 797.933 2452.27C796.743 2452.27 795.658 2452.55 794.678 2453.11C793.698 2453.67 792.916 2454.49 792.333 2455.56C791.749 2456.63 791.458 2457.89 791.458 2459.34C791.458 2460.81 791.749 2462.09 792.333 2463.19C792.916 2464.26 793.698 2465.09 794.678 2465.67C795.658 2466.23 796.743 2466.51 797.933 2466.51C799.123 2466.51 800.208 2466.23 801.188 2465.67C802.191 2465.09 802.984 2464.26 803.568 2463.19C804.151 2462.09 804.443 2460.82 804.443 2459.37ZM831.98 2449.82V2469H828.795V2466.16C828.188 2467.14 827.337 2467.91 826.24 2468.47C825.167 2469.01 823.977 2469.28 822.67 2469.28C821.177 2469.28 819.835 2468.98 818.645 2468.37C817.455 2467.74 816.51 2466.81 815.81 2465.57C815.133 2464.33 814.795 2462.83 814.795 2461.05V2449.82H817.945V2460.63C817.945 2462.52 818.423 2463.98 819.38 2465.01C820.337 2466.01 821.643 2466.51 823.3 2466.51C825.003 2466.51 826.345 2465.99 827.325 2464.94C828.305 2463.89 828.795 2462.36 828.795 2460.35V2449.82H831.98ZM842.468 2443.1V2469H839.283V2443.1H842.468ZM851.466 2446.7C850.859 2446.7 850.346 2446.49 849.926 2446.07C849.506 2445.65 849.296 2445.14 849.296 2444.53C849.296 2443.93 849.506 2443.41 849.926 2442.99C850.346 2442.57 850.859 2442.36 851.466 2442.36C852.049 2442.36 852.539 2442.57 852.936 2442.99C853.356 2443.41 853.566 2443.93 853.566 2444.53C853.566 2445.14 853.356 2445.65 852.936 2446.07C852.539 2446.49 852.049 2446.7 851.466 2446.7ZM853.006 2449.82V2469H849.821V2449.82H853.006ZM859.169 2459.34C859.169 2457.38 859.566 2455.66 860.359 2454.19C861.153 2452.7 862.238 2451.55 863.614 2450.73C865.014 2449.91 866.578 2449.5 868.304 2449.5C869.961 2449.5 871.408 2449.88 872.644 2450.62C873.904 2451.35 874.826 2452.25 875.409 2453.32V2449.82H878.629V2478.1H875.409V2465.46C874.803 2466.54 873.869 2467.45 872.609 2468.19C871.349 2468.94 869.879 2469.32 868.199 2469.32C866.519 2469.32 864.991 2468.9 863.614 2468.05C862.238 2467.21 861.153 2466.04 860.359 2464.52C859.566 2463 859.169 2461.28 859.169 2459.34ZM875.409 2459.37C875.409 2457.93 875.118 2456.67 874.534 2455.59C873.951 2454.52 873.158 2453.7 872.154 2453.14C871.174 2452.56 870.089 2452.27 868.899 2452.27C867.709 2452.27 866.624 2452.55 865.644 2453.11C864.664 2453.67 863.883 2454.49 863.299 2455.56C862.716 2456.63 862.424 2457.89 862.424 2459.34C862.424 2460.81 862.716 2462.09 863.299 2463.19C863.883 2464.26 864.664 2465.09 865.644 2465.67C866.624 2466.23 867.709 2466.51 868.899 2466.51C870.089 2466.51 871.174 2466.23 872.154 2465.67C873.158 2465.09 873.951 2464.26 874.534 2463.19C875.118 2462.09 875.409 2460.82 875.409 2459.37ZM889.122 2453.39C889.775 2452.25 890.732 2451.31 891.992 2450.59C893.252 2449.87 894.687 2449.5 896.297 2449.5C898.023 2449.5 899.575 2449.91 900.952 2450.73C902.328 2451.55 903.413 2452.7 904.207 2454.19C905 2455.66 905.397 2457.38 905.397 2459.34C905.397 2461.28 905 2463 904.207 2464.52C903.413 2466.04 902.317 2467.21 900.917 2468.05C899.54 2468.9 898 2469.32 896.297 2469.32C894.64 2469.32 893.182 2468.95 891.922 2468.23C890.685 2467.51 889.752 2466.58 889.122 2465.46V2469H885.937V2443.1H889.122V2453.39ZM902.142 2459.34C902.142 2457.89 901.85 2456.63 901.267 2455.56C900.683 2454.49 899.89 2453.67 898.887 2453.11C897.907 2452.55 896.822 2452.27 895.632 2452.27C894.465 2452.27 893.38 2452.56 892.377 2453.14C891.397 2453.7 890.603 2454.53 889.997 2455.63C889.413 2456.7 889.122 2457.95 889.122 2459.37C889.122 2460.82 889.413 2462.09 889.997 2463.19C890.603 2464.26 891.397 2465.09 892.377 2465.67C893.38 2466.23 894.465 2466.51 895.632 2466.51C896.822 2466.51 897.907 2466.23 898.887 2465.67C899.89 2465.09 900.683 2464.26 901.267 2463.19C901.85 2462.09 902.142 2460.81 902.142 2459.34ZM910.324 2459.34C910.324 2457.38 910.721 2455.66 911.514 2454.19C912.307 2452.7 913.392 2451.55 914.769 2450.73C916.169 2449.91 917.721 2449.5 919.424 2449.5C921.104 2449.5 922.562 2449.87 923.799 2450.59C925.036 2451.31 925.957 2452.22 926.564 2453.32V2449.82H929.784V2469H926.564V2465.43C925.934 2466.55 924.989 2467.48 923.729 2468.23C922.492 2468.95 921.046 2469.32 919.389 2469.32C917.686 2469.32 916.146 2468.9 914.769 2468.05C913.392 2467.21 912.307 2466.04 911.514 2464.52C910.721 2463 910.324 2461.28 910.324 2459.34ZM926.564 2459.37C926.564 2457.93 926.272 2456.67 925.689 2455.59C925.106 2454.52 924.312 2453.7 923.309 2453.14C922.329 2452.56 921.244 2452.27 920.054 2452.27C918.864 2452.27 917.779 2452.55 916.799 2453.11C915.819 2453.67 915.037 2454.49 914.454 2455.56C913.871 2456.63 913.579 2457.89 913.579 2459.34C913.579 2460.81 913.871 2462.09 914.454 2463.19C915.037 2464.26 915.819 2465.09 916.799 2465.67C917.779 2466.23 918.864 2466.51 920.054 2466.51C921.244 2466.51 922.329 2466.23 923.309 2465.67C924.312 2465.09 925.106 2464.26 925.689 2463.19C926.272 2462.09 926.564 2460.82 926.564 2459.37ZM940.276 2443.1V2469H937.091V2443.1H940.276Z" fill="white"/>
<g filter="url(#filter0_f_0_1)">
<ellipse cx="524.5" cy="593.5" rx="47.5" ry="48.5" fill="#0E85F3" fill-opacity="0.16"/>
</g>
<g filter="url(#filter1_f_0_1)">
<ellipse cx="1235" cy="326.5" rx="71" ry="66.5" fill="#0E85F3" fill-opacity="0.23"/>
</g>
<g filter="url(#filter2_f_0_1)">
<ellipse cx="918.5" cy="1173" rx="98.5" ry="104" fill="#0E85F3" fill-opacity="0.19"/>
</g>
<g filter="url(#filter3_f_0_1)">
<ellipse cx="291.5" cy="1450" rx="98.5" ry="104" fill="#0E85F3" fill-opacity="0.19"/>
</g>
<g filter="url(#filter4_f_0_1)">
<ellipse cx="1200" cy="1725.5" rx="77" ry="72.5" fill="#0E85F3" fill-opacity="0.19"/>
</g>
<g filter="url(#filter5_f_0_1)">
<ellipse cx="224.5" cy="829" rx="57.5" ry="52" fill="#0E85F3" fill-opacity="0.19"/>
</g>
<g filter="url(#filter6_f_0_1)">
<ellipse cx="294.5" cy="199.5" rx="70.5" ry="65.5" fill="#0E85F3" fill-opacity="0.22"/>
</g>
</g>
<defs>
<filter id="filter0_f_0_1" x="435" y="503" width="179" height="181" filterUnits="userSpaceOnUse" color-interpolation-filters="sRGB">
<feFlood flood-opacity="0" result="BackgroundImageFix"/>
<feBlend mode="normal" in="SourceGraphic" in2="BackgroundImageFix" result="shape"/>
<feGaussianBlur stdDeviation="21" result="effect1_foregroundBlur_0_1"/>
</filter>
<filter id="filter1_f_0_1" x="1110" y="206" width="250" height="241" filterUnits="userSpaceOnUse" color-interpolation-filters="sRGB">
<feFlood flood-opacity="0" result="BackgroundImageFix"/>
<feBlend mode="normal" in="SourceGraphic" in2="BackgroundImageFix" result="shape"/>
<feGaussianBlur stdDeviation="27" result="effect1_foregroundBlur_0_1"/>
</filter>
<filter id="filter2_f_0_1" x="766" y="1015" width="305" height="316" filterUnits="userSpaceOnUse" color-interpolation-filters="sRGB">
<feFlood flood-opacity="0" result="BackgroundImageFix"/>
<feBlend mode="normal" in="SourceGraphic" in2="BackgroundImageFix" result="shape"/>
<feGaussianBlur stdDeviation="27" result="effect1_foregroundBlur_0_1"/>
</filter>
<filter id="filter3_f_0_1" x="139" y="1292" width="305" height="316" filterUnits="userSpaceOnUse" color-interpolation-filters="sRGB">
<feFlood flood-opacity="0" result="BackgroundImageFix"/>
<feBlend mode="normal" in="SourceGraphic" in2="BackgroundImageFix" result="shape"/>
<feGaussianBlur stdDeviation="27" result="effect1_foregroundBlur_0_1"/>
</filter>
<filter id="filter4_f_0_1" x="1069" y="1599" width="262" height="253" filterUnits="userSpaceOnUse" color-interpolation-filters="sRGB">
<feFlood flood-opacity="0" result="BackgroundImageFix"/>
<feBlend mode="normal" in="SourceGraphic" in2="BackgroundImageFix" result="shape"/>
<feGaussianBlur stdDeviation="27" result="effect1_foregroundBlur_0_1"/>
</filter>
<filter id="filter5_f_0_1" x="113" y="723" width="223" height="212" filterUnits="userSpaceOnUse" color-interpolation-filters="sRGB">
<feFlood flood-opacity="0" result="BackgroundImageFix"/>
<feBlend mode="normal" in="SourceGraphic" in2="BackgroundImageFix" result="shape"/>
<feGaussianBlur stdDeviation="27" result="effect1_foregroundBlur_0_1"/>
</filter>
<filter id="filter6_f_0_1" x="159" y="69" width="271" height="261" filterUnits="userSpaceOnUse" color-interpolation-filters="sRGB">
<feFlood flood-opacity="0" result="BackgroundImageFix"/>
<feBlend mode="normal" in="SourceGraphic" in2="BackgroundImageFix" result="shape"/>
<feGaussianBlur stdDeviation="32.5" result="effect1_foregroundBlur_0_1"/>
</filter>
<clipPath id="clip0_0_1">
<rect width="1440" height="2504" fill="white"/>
</clipPath>
</defs>
</svg>
