<svg width="428" height="4227" viewBox="0 0 428 4227" fill="none" xmlns="http://www.w3.org/2000/svg">
<g clip-path="url(#clip0_14_3)">
<rect width="428" height="4227" fill="white"/>
<g filter="url(#filter0_f_14_3)">
<ellipse cx="373" cy="305.5" rx="71" ry="66.5" fill="#0E85F3" fill-opacity="0.23"/>
</g>
<g filter="url(#filter1_f_14_3)">
<ellipse cx="74.5" cy="172" rx="44.5" ry="44" fill="#0E85F3" fill-opacity="0.23"/>
</g>
<path d="M86.3432 4191.57C88.2432 4191.57 89.8848 4191.93 91.2682 4192.65C92.6682 4193.35 93.7348 4194.36 94.4682 4195.67C95.2182 4196.99 95.5932 4198.54 95.5932 4200.32C95.5932 4202.11 95.2182 4203.66 94.4682 4204.97C93.7348 4206.27 92.6682 4207.27 91.2682 4207.97C89.8848 4208.66 88.2432 4209 86.3432 4209H80.9182V4191.57H86.3432ZM86.3432 4207.12C88.5932 4207.12 90.3098 4206.53 91.4932 4205.35C92.6765 4204.15 93.2682 4202.47 93.2682 4200.32C93.2682 4198.16 92.6682 4196.47 91.4682 4195.25C90.2848 4194.03 88.5765 4193.42 86.3432 4193.42H83.1932V4207.12H86.3432ZM112.469 4201.62C112.469 4202.06 112.444 4202.52 112.394 4203H101.444C101.527 4204.35 101.986 4205.41 102.819 4206.17C103.669 4206.92 104.694 4207.3 105.894 4207.3C106.877 4207.3 107.694 4207.07 108.344 4206.62C109.011 4206.16 109.477 4205.54 109.744 4204.77H112.194C111.827 4206.09 111.094 4207.17 109.994 4208C108.894 4208.82 107.527 4209.23 105.894 4209.23C104.594 4209.23 103.427 4208.93 102.394 4208.35C101.377 4207.77 100.577 4206.94 99.9939 4205.88C99.4106 4204.79 99.1189 4203.54 99.1189 4202.12C99.1189 4200.71 99.4023 4199.47 99.9689 4198.4C100.536 4197.33 101.327 4196.52 102.344 4195.95C103.377 4195.37 104.561 4195.07 105.894 4195.07C107.194 4195.07 108.344 4195.36 109.344 4195.92C110.344 4196.49 111.111 4197.27 111.644 4198.27C112.194 4199.26 112.469 4200.37 112.469 4201.62ZM110.119 4201.15C110.119 4200.28 109.927 4199.54 109.544 4198.92C109.161 4198.29 108.636 4197.82 107.969 4197.5C107.319 4197.17 106.594 4197 105.794 4197C104.644 4197 103.661 4197.37 102.844 4198.1C102.044 4198.83 101.586 4199.85 101.469 4201.15H110.119ZM121.697 4209.23C120.647 4209.23 119.705 4209.05 118.872 4208.7C118.039 4208.33 117.38 4207.83 116.897 4207.2C116.414 4206.55 116.147 4205.81 116.097 4204.97H118.447C118.514 4205.66 118.83 4206.22 119.397 4206.65C119.98 4207.08 120.739 4207.3 121.672 4207.3C122.539 4207.3 123.222 4207.11 123.722 4206.72C124.222 4206.34 124.472 4205.86 124.472 4205.27C124.472 4204.67 124.205 4204.23 123.672 4203.95C123.139 4203.65 122.314 4203.36 121.197 4203.07C120.18 4202.81 119.347 4202.54 118.697 4202.27C118.064 4201.99 117.514 4201.58 117.047 4201.05C116.597 4200.5 116.372 4199.78 116.372 4198.9C116.372 4198.2 116.58 4197.56 116.997 4196.97C117.414 4196.39 118.005 4195.93 118.772 4195.6C119.539 4195.25 120.414 4195.07 121.397 4195.07C122.914 4195.07 124.139 4195.46 125.072 4196.22C126.005 4196.99 126.505 4198.04 126.572 4199.37H124.297C124.247 4198.66 123.955 4198.08 123.422 4197.65C122.905 4197.22 122.205 4197 121.322 4197C120.505 4197 119.855 4197.17 119.372 4197.52C118.889 4197.87 118.647 4198.33 118.647 4198.9C118.647 4199.35 118.789 4199.72 119.072 4200.02C119.372 4200.31 119.739 4200.54 120.172 4200.72C120.622 4200.89 121.239 4201.08 122.022 4201.3C123.005 4201.57 123.805 4201.83 124.422 4202.1C125.039 4202.35 125.564 4202.73 125.997 4203.25C126.447 4203.77 126.68 4204.44 126.697 4205.27C126.697 4206.02 126.489 4206.7 126.072 4207.3C125.655 4207.9 125.064 4208.37 124.297 4208.72C123.547 4209.06 122.68 4209.23 121.697 4209.23ZM132.458 4193.07C132.025 4193.07 131.658 4192.92 131.358 4192.62C131.058 4192.32 130.908 4191.96 130.908 4191.52C130.908 4191.09 131.058 4190.72 131.358 4190.42C131.658 4190.12 132.025 4189.97 132.458 4189.97C132.875 4189.97 133.225 4190.12 133.508 4190.42C133.808 4190.72 133.958 4191.09 133.958 4191.52C133.958 4191.96 133.808 4192.32 133.508 4192.62C133.225 4192.92 132.875 4193.07 132.458 4193.07ZM133.558 4195.3V4209H131.283V4195.3H133.558ZM144.461 4195.07C145.644 4195.07 146.677 4195.33 147.561 4195.85C148.461 4196.37 149.127 4197.02 149.561 4197.8V4195.3H151.861V4209.3C151.861 4210.55 151.594 4211.66 151.061 4212.63C150.527 4213.61 149.761 4214.38 148.761 4214.93C147.777 4215.48 146.627 4215.75 145.311 4215.75C143.511 4215.75 142.011 4215.33 140.811 4214.48C139.611 4213.63 138.902 4212.47 138.686 4211H140.936C141.186 4211.83 141.702 4212.5 142.486 4213C143.269 4213.52 144.211 4213.78 145.311 4213.78C146.561 4213.78 147.577 4213.38 148.361 4212.6C149.161 4211.82 149.561 4210.72 149.561 4209.3V4206.42C149.111 4207.22 148.444 4207.89 147.561 4208.42C146.677 4208.96 145.644 4209.23 144.461 4209.23C143.244 4209.23 142.136 4208.93 141.136 4208.32C140.152 4207.72 139.377 4206.88 138.811 4205.8C138.244 4204.72 137.961 4203.48 137.961 4202.1C137.961 4200.7 138.244 4199.47 138.811 4198.42C139.377 4197.36 140.152 4196.53 141.136 4195.95C142.136 4195.37 143.244 4195.07 144.461 4195.07ZM149.561 4202.12C149.561 4201.09 149.352 4200.19 148.936 4199.42C148.519 4198.66 147.952 4198.07 147.236 4197.67C146.536 4197.26 145.761 4197.05 144.911 4197.05C144.061 4197.05 143.286 4197.25 142.586 4197.65C141.886 4198.05 141.327 4198.63 140.911 4199.4C140.494 4200.17 140.286 4201.07 140.286 4202.1C140.286 4203.15 140.494 4204.07 140.911 4204.85C141.327 4205.62 141.886 4206.21 142.586 4206.62C143.286 4207.02 144.061 4207.22 144.911 4207.22C145.761 4207.22 146.536 4207.02 147.236 4206.62C147.952 4206.21 148.519 4205.62 148.936 4204.85C149.352 4204.07 149.561 4203.16 149.561 4202.12ZM163.755 4195.05C165.422 4195.05 166.772 4195.56 167.805 4196.57C168.839 4197.57 169.355 4199.02 169.355 4200.92V4209H167.105V4201.25C167.105 4199.88 166.764 4198.84 166.08 4198.12C165.397 4197.39 164.464 4197.02 163.28 4197.02C162.08 4197.02 161.122 4197.4 160.405 4198.15C159.705 4198.9 159.355 4199.99 159.355 4201.42V4209H157.08V4195.3H159.355V4197.25C159.805 4196.55 160.414 4196.01 161.18 4195.62C161.964 4195.24 162.822 4195.05 163.755 4195.05ZM191.212 4200.02C191.845 4200.12 192.42 4200.38 192.937 4200.8C193.47 4201.22 193.887 4201.73 194.187 4202.35C194.503 4202.97 194.662 4203.62 194.662 4204.32C194.662 4205.21 194.437 4206.01 193.987 4206.72C193.537 4207.42 192.878 4207.98 192.012 4208.4C191.162 4208.8 190.153 4209 188.987 4209H182.487V4191.57H188.737C189.92 4191.57 190.928 4191.77 191.762 4192.17C192.595 4192.56 193.22 4193.08 193.637 4193.75C194.053 4194.42 194.262 4195.17 194.262 4196C194.262 4197.03 193.978 4197.89 193.412 4198.57C192.862 4199.24 192.128 4199.72 191.212 4200.02ZM184.762 4199.1H188.587C189.653 4199.1 190.478 4198.85 191.062 4198.35C191.645 4197.85 191.937 4197.16 191.937 4196.27C191.937 4195.39 191.645 4194.7 191.062 4194.2C190.478 4193.7 189.637 4193.45 188.537 4193.45H184.762V4199.1ZM188.787 4207.12C189.92 4207.12 190.803 4206.86 191.437 4206.32C192.07 4205.79 192.387 4205.05 192.387 4204.1C192.387 4203.13 192.053 4202.37 191.387 4201.82C190.72 4201.26 189.828 4200.97 188.712 4200.97H184.762V4207.12H188.787ZM210.994 4195.3L202.744 4215.45H200.394L203.094 4208.85L197.569 4195.3H200.094L204.394 4206.4L208.644 4195.3H210.994ZM231.871 4209L227.721 4201.87H224.971V4209H222.696V4191.57H228.321C229.637 4191.57 230.746 4191.8 231.646 4192.25C232.562 4192.7 233.246 4193.31 233.696 4194.07C234.146 4194.84 234.371 4195.72 234.371 4196.7C234.371 4197.9 234.021 4198.96 233.321 4199.87C232.637 4200.79 231.604 4201.4 230.221 4201.7L234.596 4209H231.871ZM224.971 4200.05H228.321C229.554 4200.05 230.479 4199.75 231.096 4199.15C231.712 4198.53 232.021 4197.72 232.021 4196.7C232.021 4195.67 231.712 4194.87 231.096 4194.3C230.496 4193.73 229.571 4193.45 228.321 4193.45H224.971V4200.05ZM238.43 4202.1C238.43 4200.7 238.714 4199.47 239.28 4198.42C239.847 4197.36 240.622 4196.53 241.605 4195.95C242.605 4195.37 243.714 4195.07 244.93 4195.07C246.13 4195.07 247.172 4195.33 248.055 4195.85C248.939 4196.37 249.597 4197.02 250.03 4197.8V4195.3H252.33V4209H250.03V4206.45C249.58 4207.25 248.905 4207.92 248.005 4208.45C247.122 4208.97 246.089 4209.23 244.905 4209.23C243.689 4209.23 242.589 4208.93 241.605 4208.32C240.622 4207.72 239.847 4206.88 239.28 4205.8C238.714 4204.72 238.43 4203.48 238.43 4202.1ZM250.03 4202.12C250.03 4201.09 249.822 4200.19 249.405 4199.42C248.989 4198.66 248.422 4198.07 247.705 4197.67C247.005 4197.26 246.23 4197.05 245.38 4197.05C244.53 4197.05 243.755 4197.25 243.055 4197.65C242.355 4198.05 241.797 4198.63 241.38 4199.4C240.964 4200.17 240.755 4201.07 240.755 4202.1C240.755 4203.15 240.964 4204.07 241.38 4204.85C241.797 4205.62 242.355 4206.21 243.055 4206.62C243.755 4207.02 244.53 4207.22 245.38 4207.22C246.23 4207.22 247.005 4207.02 247.705 4206.62C248.422 4206.21 248.989 4205.62 249.405 4204.85C249.822 4204.07 250.03 4203.16 250.03 4202.12ZM269.7 4195.3V4209H267.425V4206.97C266.992 4207.67 266.383 4208.22 265.6 4208.62C264.833 4209.01 263.983 4209.2 263.05 4209.2C261.983 4209.2 261.025 4208.98 260.175 4208.55C259.325 4208.1 258.65 4207.43 258.15 4206.55C257.667 4205.67 257.425 4204.59 257.425 4203.32V4195.3H259.675V4203.02C259.675 4204.37 260.017 4205.42 260.7 4206.15C261.383 4206.87 262.317 4207.22 263.5 4207.22C264.717 4207.22 265.675 4206.85 266.375 4206.1C267.075 4205.35 267.425 4204.26 267.425 4202.82V4195.3H269.7ZM277.191 4190.5V4209H274.916V4190.5H277.191ZM283.619 4193.07C283.185 4193.07 282.819 4192.92 282.519 4192.62C282.219 4192.32 282.069 4191.96 282.069 4191.52C282.069 4191.09 282.219 4190.72 282.519 4190.42C282.819 4190.12 283.185 4189.97 283.619 4189.97C284.035 4189.97 284.385 4190.12 284.669 4190.42C284.969 4190.72 285.119 4191.09 285.119 4191.52C285.119 4191.96 284.969 4192.32 284.669 4192.62C284.385 4192.92 284.035 4193.07 283.619 4193.07ZM284.719 4195.3V4209H282.444V4195.3H284.719ZM289.121 4202.1C289.121 4200.7 289.404 4199.47 289.971 4198.42C290.538 4197.36 291.313 4196.53 292.296 4195.95C293.296 4195.37 294.413 4195.07 295.646 4195.07C296.829 4195.07 297.863 4195.34 298.746 4195.87C299.646 4196.39 300.304 4197.03 300.721 4197.8V4195.3H303.021V4215.5H300.721V4206.47C300.288 4207.24 299.621 4207.89 298.721 4208.42C297.821 4208.96 296.771 4209.23 295.571 4209.23C294.371 4209.23 293.279 4208.93 292.296 4208.32C291.313 4207.72 290.538 4206.88 289.971 4205.8C289.404 4204.72 289.121 4203.48 289.121 4202.1ZM300.721 4202.12C300.721 4201.09 300.513 4200.19 300.096 4199.42C299.679 4198.66 299.113 4198.07 298.396 4197.67C297.696 4197.26 296.921 4197.05 296.071 4197.05C295.221 4197.05 294.446 4197.25 293.746 4197.65C293.046 4198.05 292.488 4198.63 292.071 4199.4C291.654 4200.17 291.446 4201.07 291.446 4202.1C291.446 4203.15 291.654 4204.07 292.071 4204.85C292.488 4205.62 293.046 4206.21 293.746 4206.62C294.446 4207.02 295.221 4207.22 296.071 4207.22C296.921 4207.22 297.696 4207.02 298.396 4206.62C299.113 4206.21 299.679 4205.62 300.096 4204.85C300.513 4204.07 300.721 4203.16 300.721 4202.12ZM310.515 4197.85C310.982 4197.03 311.665 4196.37 312.565 4195.85C313.465 4195.33 314.49 4195.07 315.64 4195.07C316.874 4195.07 317.982 4195.37 318.965 4195.95C319.949 4196.53 320.724 4197.36 321.29 4198.42C321.857 4199.47 322.14 4200.7 322.14 4202.1C322.14 4203.48 321.857 4204.72 321.29 4205.8C320.724 4206.88 319.94 4207.72 318.94 4208.32C317.957 4208.93 316.857 4209.23 315.64 4209.23C314.457 4209.23 313.415 4208.97 312.515 4208.45C311.632 4207.93 310.965 4207.27 310.515 4206.47V4209H308.24V4190.5H310.515V4197.85ZM319.815 4202.1C319.815 4201.07 319.607 4200.17 319.19 4199.4C318.774 4198.63 318.207 4198.05 317.49 4197.65C316.79 4197.25 316.015 4197.05 315.165 4197.05C314.332 4197.05 313.557 4197.26 312.84 4197.67C312.14 4198.07 311.574 4198.67 311.14 4199.45C310.724 4200.22 310.515 4201.11 310.515 4202.12C310.515 4203.16 310.724 4204.07 311.14 4204.85C311.574 4205.62 312.14 4206.21 312.84 4206.62C313.557 4207.02 314.332 4207.22 315.165 4207.22C316.015 4207.22 316.79 4207.02 317.49 4206.62C318.207 4206.21 318.774 4205.62 319.19 4204.85C319.607 4204.07 319.815 4203.15 319.815 4202.1ZM325.66 4202.1C325.66 4200.7 325.943 4199.47 326.51 4198.42C327.077 4197.36 327.852 4196.53 328.835 4195.95C329.835 4195.37 330.943 4195.07 332.16 4195.07C333.36 4195.07 334.402 4195.33 335.285 4195.85C336.168 4196.37 336.827 4197.02 337.26 4197.8V4195.3H339.56V4209H337.26V4206.45C336.81 4207.25 336.135 4207.92 335.235 4208.45C334.352 4208.97 333.318 4209.23 332.135 4209.23C330.918 4209.23 329.818 4208.93 328.835 4208.32C327.852 4207.72 327.077 4206.88 326.51 4205.8C325.943 4204.72 325.66 4203.48 325.66 4202.1ZM337.26 4202.12C337.26 4201.09 337.052 4200.19 336.635 4199.42C336.218 4198.66 335.652 4198.07 334.935 4197.67C334.235 4197.26 333.46 4197.05 332.61 4197.05C331.76 4197.05 330.985 4197.25 330.285 4197.65C329.585 4198.05 329.027 4198.63 328.61 4199.4C328.193 4200.17 327.985 4201.07 327.985 4202.1C327.985 4203.15 328.193 4204.07 328.61 4204.85C329.027 4205.62 329.585 4206.21 330.285 4206.62C330.985 4207.02 331.76 4207.22 332.61 4207.22C333.46 4207.22 334.235 4207.02 334.935 4206.62C335.652 4206.21 336.218 4205.62 336.635 4204.85C337.052 4204.07 337.26 4203.16 337.26 4202.12ZM347.054 4190.5V4209H344.779V4190.5H347.054Z" fill="white"/>
</g>
<defs>
<filter id="filter0_f_14_3" x="248" y="185" width="250" height="241" filterUnits="userSpaceOnUse" color-interpolation-filters="sRGB">
<feFlood flood-opacity="0" result="BackgroundImageFix"/>
<feBlend mode="normal" in="SourceGraphic" in2="BackgroundImageFix" result="shape"/>
<feGaussianBlur stdDeviation="27" result="effect1_foregroundBlur_14_3"/>
</filter>
<filter id="filter1_f_14_3" x="-24" y="74" width="197" height="196" filterUnits="userSpaceOnUse" color-interpolation-filters="sRGB">
<feFlood flood-opacity="0" result="BackgroundImageFix"/>
<feBlend mode="normal" in="SourceGraphic" in2="BackgroundImageFix" result="shape"/>
<feGaussianBlur stdDeviation="27" result="effect1_foregroundBlur_14_3"/>
</filter>
<clipPath id="clip0_14_3">
<rect width="428" height="4227" fill="white"/>
</clipPath>
</defs>
</svg>
