<svg width="274" height="38" viewBox="0 0 274 38" fill="none" xmlns="http://www.w3.org/2000/svg">
<path d="M24.9637 3.78V28H21.7787V9.94L13.7287 28H11.4887L3.40373 9.905V28H0.218728V3.78H3.64873L12.6087 23.8L21.5687 3.78H24.9637ZM53.3602 8.82L41.8102 37.03H38.5202L42.3002 27.79L34.5652 8.82H38.1002L44.1202 24.36L50.0702 8.82H53.3602Z" fill="#14279B"/>
<path d="M95.3867 11.13C95.3867 12.4367 95.0717 13.6617 94.4417 14.805C93.8351 15.9483 92.8667 16.87 91.5367 17.57C90.2301 18.27 88.5734 18.62 86.5667 18.62H82.4717V28H77.5717V3.57H86.5667C88.4567 3.57 90.0667 3.89667 91.3967 4.55C92.7267 5.20333 93.7184 6.10167 94.3717 7.245C95.0484 8.38833 95.3867 9.68333 95.3867 11.13ZM86.3567 14.665C87.7101 14.665 88.7134 14.3617 89.3667 13.755C90.0201 13.125 90.3467 12.25 90.3467 11.13C90.3467 8.75 89.0167 7.56 86.3567 7.56H82.4717V14.665H86.3567ZM113.951 28.315C112.084 28.315 110.404 27.9067 108.911 27.09C107.417 26.25 106.239 25.0717 105.376 23.555C104.536 22.0383 104.116 20.2883 104.116 18.305C104.116 16.3217 104.547 14.5717 105.411 13.055C106.297 11.5383 107.499 10.3717 109.016 9.555C110.532 8.715 112.224 8.295 114.091 8.295C115.957 8.295 117.649 8.715 119.166 9.555C120.682 10.3717 121.872 11.5383 122.736 13.055C123.622 14.5717 124.066 16.3217 124.066 18.305C124.066 20.2883 123.611 22.0383 122.701 23.555C121.814 25.0717 120.601 26.25 119.061 27.09C117.544 27.9067 115.841 28.315 113.951 28.315ZM113.951 24.045C114.837 24.045 115.666 23.835 116.436 23.415C117.229 22.9717 117.859 22.3183 118.326 21.455C118.792 20.5917 119.026 19.5417 119.026 18.305C119.026 16.4617 118.536 15.05 117.556 14.07C116.599 13.0667 115.421 12.565 114.021 12.565C112.621 12.565 111.442 13.0667 110.486 14.07C109.552 15.05 109.086 16.4617 109.086 18.305C109.086 20.1483 109.541 21.5717 110.451 22.575C111.384 23.555 112.551 24.045 113.951 24.045ZM139.035 11.62C139.665 10.5933 140.482 9.78833 141.485 9.205C142.512 8.62167 143.678 8.33 144.985 8.33V13.475H143.69C142.15 13.475 140.983 13.8367 140.19 14.56C139.42 15.2833 139.035 16.5433 139.035 18.34V28H134.135V8.61H139.035V11.62ZM160.465 12.635V22.015C160.465 22.6683 160.617 23.1467 160.92 23.45C161.247 23.73 161.784 23.87 162.53 23.87H164.805V28H161.725C157.595 28 155.53 25.9933 155.53 21.98V12.635H153.22V8.61H155.53V3.815H160.465V8.61H164.805V12.635H160.465ZM183.695 12.635H180.3V28H175.33V12.635H173.125V8.61H175.33V7.63C175.33 5.25 176.006 3.5 177.36 2.38C178.713 1.26 180.755 0.734999 183.485 0.805V4.935C182.295 4.91167 181.466 5.11 181 5.53C180.533 5.95 180.3 6.70833 180.3 7.805V8.61H183.695V12.635ZM201.955 28.315C200.089 28.315 198.409 27.9067 196.915 27.09C195.422 26.25 194.244 25.0717 193.38 23.555C192.54 22.0383 192.12 20.2883 192.12 18.305C192.12 16.3217 192.552 14.5717 193.415 13.055C194.302 11.5383 195.504 10.3717 197.02 9.555C198.537 8.715 200.229 8.295 202.095 8.295C203.962 8.295 205.654 8.715 207.17 9.555C208.687 10.3717 209.877 11.5383 210.74 13.055C211.627 14.5717 212.07 16.3217 212.07 18.305C212.07 20.2883 211.615 22.0383 210.705 23.555C209.819 25.0717 208.605 26.25 207.065 27.09C205.549 27.9067 203.845 28.315 201.955 28.315ZM201.955 24.045C202.842 24.045 203.67 23.835 204.44 23.415C205.234 22.9717 205.864 22.3183 206.33 21.455C206.797 20.5917 207.03 19.5417 207.03 18.305C207.03 16.4617 206.54 15.05 205.56 14.07C204.604 13.0667 203.425 12.565 202.025 12.565C200.625 12.565 199.447 13.0667 198.49 14.07C197.557 15.05 197.09 16.4617 197.09 18.305C197.09 20.1483 197.545 21.5717 198.455 22.575C199.389 23.555 200.555 24.045 201.955 24.045ZM227.039 2.1V28H222.139V2.1H227.039ZM240.841 6.3C239.977 6.3 239.254 6.03167 238.671 5.495C238.111 4.935 237.831 4.24667 237.831 3.43C237.831 2.61333 238.111 1.93666 238.671 1.4C239.254 0.839999 239.977 0.559999 240.841 0.559999C241.704 0.559999 242.416 0.839999 242.976 1.4C243.559 1.93666 243.851 2.61333 243.851 3.43C243.851 4.24667 243.559 4.935 242.976 5.495C242.416 6.03167 241.704 6.3 240.841 6.3ZM243.256 8.61V28H238.356V8.61H243.256ZM263.182 28.315C261.315 28.315 259.635 27.9067 258.142 27.09C256.649 26.25 255.47 25.0717 254.607 23.555C253.767 22.0383 253.347 20.2883 253.347 18.305C253.347 16.3217 253.779 14.5717 254.642 13.055C255.529 11.5383 256.73 10.3717 258.247 9.555C259.764 8.715 261.455 8.295 263.322 8.295C265.189 8.295 266.88 8.715 268.397 9.555C269.914 10.3717 271.104 11.5383 271.967 13.055C272.854 14.5717 273.297 16.3217 273.297 18.305C273.297 20.2883 272.842 22.0383 271.932 23.555C271.045 25.0717 269.832 26.25 268.292 27.09C266.775 27.9067 265.072 28.315 263.182 28.315ZM263.182 24.045C264.069 24.045 264.897 23.835 265.667 23.415C266.46 22.9717 267.09 22.3183 267.557 21.455C268.024 20.5917 268.257 19.5417 268.257 18.305C268.257 16.4617 267.767 15.05 266.787 14.07C265.83 13.0667 264.652 12.565 263.252 12.565C261.852 12.565 260.674 13.0667 259.717 14.07C258.784 15.05 258.317 16.4617 258.317 18.305C258.317 20.1483 258.772 21.5717 259.682 22.575C260.615 23.555 261.782 24.045 263.182 24.045Z" fill="#002265"/>
</svg>
